<?xml version="1.0" encoding="utf-8"?>
<svg viewBox="0 0 500 500" xmlns="http://www.w3.org/2000/svg">
  <g transform="matrix(0.1, 0, 0, -0.1, -129.435993, 426.116437)" fill="#000000" stroke="none">
    <path d="M3679 2780 c-74 -13 -191 -67 -254 -118 -71 -57 -141 -156 -179 -254 -16 -40 -44 -143 -62 -228 -50 -229 -61 -267 -104 -356 -67 -139 -229 -271 -400 -325 l-55 -18 85 0 c161 -1 308 58 421 169 109 108 160 229 220 515 51 250 90 339 190 435 68 66 136 108 250 155 l84 35 -75 -1 c-41 -1 -95 -5 -121 -9z" style="fill: rgb(255, 255, 255);"/>
    <path d="M2457 2690 c-50 -13 -133 -56 -180 -94 -56 -44 -103 -113 -133 -192 -22 -59 -25 -81 -22 -159 3 -80 7 -99 40 -165 20 -41 47 -88 61 -105 l25 -30 36 34 c20 19 36 38 36 43 0 4 -13 27 -30 50 -63 91 -74 221 -26 324 54 117 145 175 287 182 98 5 141 -6 208 -50 l44 -29 36 35 c29 30 34 39 25 54 -14 22 -108 79 -154 93 -49 15 -207 20 -253 9z" style="fill: rgb(255, 255, 255);"/>
    <path d="M3915 2689 c-128 -17 -226 -62 -318 -148 -34 -33 -76 -83 -91 -111 l-28 -52 61 50 c124 100 238 142 383 142 467 0 708 -549 400 -911 -19 -21 -31 -39 -28 -39 17 0 87 54 131 101 102 109 148 227 148 384 1 349 -314 628 -658 584z" style="fill: rgb(255, 255, 255);"/>
    <path d="M2169 2622 c-89 -58 -169 -163 -210 -278 -31 -86 -32 -253 -2 -349 58 -185 196 -325 385 -393 62 -22 90 -26 183 -26 93 0 121 4 183 26 40 14 95 40 122 58 60 38 146 130 179 191 l25 44 -40 -36 c-193 -173 -426 -212 -643 -109 -222 106 -339 347 -291 601 14 73 67 184 118 247 23 28 41 52 39 52 -2 0 -23 -13 -48 -28z" style="fill: rgb(255, 255, 255);"/>
    <path d="M3627 2103 c69 -120 163 -285 210 -366 47 -81 87 -147 88 -145 2 2 26 42 53 90 l50 86 -157 274 -158 273 -106 3 -106 3 126 -218z" style="fill: rgb(255, 255, 255);"/>
    <path d="M4088 2236 c-27 -46 -48 -87 -48 -90 0 -4 46 -5 102 -4 l102 3 48 83 c26 46 48 86 48 88 0 2 -46 4 -102 4 l-103 0 -47 -84z" style="fill: rgb(255, 255, 255);"/>
    <path d="M2570 2255 l0 -55 160 0 c183 0 179 3 134 -88 -48 -98 -162 -178 -262 -185 -32 -2 -32 -3 -32 -56 l0 -54 60 6 c86 7 178 54 249 124 84 84 131 199 131 318 l0 45 -220 0 -220 0 0 -55z" style="fill: rgb(255, 255, 255);"/>
    <path d="M4761 1372 c-57 -116 -122 -265 -117 -270 3 -2 -6 -18 -19 -34 -14 -16 -25 -34 -25 -39 0 -5 21 -9 48 -9 42 0 49 3 64 30 16 28 21 30 76 30 57 0 60 -1 72 -30 11 -28 16 -30 61 -30 27 0 49 2 49 4 0 5 -179 388 -183 393 -2 1 -14 -19 -26 -45z m47 -195 c16 -44 17 -42 -23 -43 -39 -1 -41 4 -20 46 20 38 28 38 43 -3z" style="fill: rgb(255, 255, 255);"/>
    <path d="M1830 1359 c-33 -13 -68 -47 -87 -83 -18 -34 -20 -124 -3 -155 14 -27 67 -51 110 -51 36 0 40 15 5 24 -31 8 -65 60 -65 99 0 106 139 159 198 75 13 -18 82 -27 82 -9 0 20 -48 75 -80 92 -38 21 -118 24 -160 8z" style="fill: rgb(255, 255, 255);"/>
    <path d="M2120 1195 l0 -165 100 0 100 0 0 35 0 34 -57 3 c-57 3 -58 3 -58 33 0 29 1 30 53 33 l53 3 -3 32 c-3 31 -4 32 -56 35 -48 3 -53 5 -50 25 3 19 10 22 61 25 l57 3 0 34 0 35 -100 0 -100 0 0 -165z" style="fill: rgb(255, 255, 255);"/>
    <path d="M2392 1198 l3 -163 100 0 100 0 0 30 c0 29 -1 30 -60 35 -59 5 -60 6 -60 35 0 29 1 30 53 33 l53 3 -3 32 c-3 31 -5 32 -53 37 -42 4 -50 8 -50 25 0 17 8 20 58 23 l57 3 0 34 0 35 -100 0 -100 0 2 -162z" style="fill: rgb(255, 255, 255);"/>
    <path d="M2666 1352 c-9 -14 -6 -296 3 -311 5 -7 22 -11 42 -9 34 3 34 3 39 63 4 44 9 60 20 60 8 0 31 -27 51 -60 34 -56 38 -60 77 -63 53 -4 53 4 2 87 l-39 64 26 34 c19 24 28 50 31 89 l4 54 -41 0 c-39 0 -41 -2 -41 -30 0 -44 -19 -78 -52 -89 -34 -12 -36 -9 -40 64 -3 50 -3 50 -40 53 -20 2 -39 -1 -42 -6z" style="fill: rgb(255, 255, 255);"/>
    <path d="M3208 1343 c-10 -2 -18 -7 -18 -10 0 -3 28 -67 61 -144 46 -104 66 -139 79 -139 13 0 34 36 80 141 63 145 65 157 17 154 -18 -1 -29 -18 -57 -83 -19 -45 -38 -82 -41 -82 -4 0 -19 32 -34 70 -25 66 -48 101 -63 99 -4 -1 -15 -3 -24 -6z" style="fill: rgb(255, 255, 255);"/>
    <path d="M3538 1343 c-32 -4 -38 -8 -38 -28 0 -14 9 -29 20 -35 17 -9 20 -21 20 -86 0 -67 -2 -76 -20 -81 -14 -4 -20 -14 -20 -35 l0 -29 73 3 c65 3 72 5 75 25 2 14 -4 26 -17 33 -19 9 -21 20 -21 90 0 64 3 80 15 80 10 0 15 10 15 30 0 17 -5 30 -12 30 -7 0 -22 2 -33 4 -11 2 -37 1 -57 -1z" style="fill: rgb(255, 255, 255);"/>
    <path d="M3755 1341 c-30 -13 -54 -44 -61 -79 -9 -47 34 -86 104 -96 48 -6 53 -9 50 -29 -4 -28 -52 -36 -78 -12 -20 19 -71 17 -78 -2 -2 -7 10 -26 26 -43 26 -26 38 -30 82 -30 64 0 105 21 119 60 20 59 -8 95 -90 110 -60 12 -72 20 -64 42 9 23 46 30 72 13 32 -22 73 -20 73 3 0 47 -99 87 -155 63z" style="fill: rgb(255, 255, 255);"/>
    <path d="M4168 1343 c-14 -3 -18 -15 -18 -53 0 -54 -4 -57 -61 -52 l-39 4 0 49 0 49 -35 0 -35 0 0 -145 0 -145 35 0 34 0 3 58 3 57 45 0 45 0 3 -57 3 -58 34 0 35 0 0 144 c0 122 -2 145 -16 150 -9 3 -16 5 -17 5 -1 -1 -10 -3 -19 -6z" style="fill: rgb(255, 255, 255);"/>
    <path d="M4288 1343 c-10 -3 -18 -10 -18 -16 0 -7 22 -70 49 -142 42 -114 51 -130 71 -130 18 0 26 11 42 55 11 30 24 58 27 63 4 4 19 -21 33 -55 35 -86 57 -89 87 -11 57 145 82 226 74 234 -5 5 -23 6 -41 3 -29 -6 -33 -12 -53 -81 -12 -40 -25 -70 -29 -66 -4 4 -18 39 -30 76 -28 87 -45 86 -76 -7 -13 -38 -26 -71 -29 -74 -5 -5 -5 -4 -31 83 -9 33 -18 61 -19 63 -4 5 -40 8 -57 5z" style="fill: rgb(255, 255, 255);"/>
    <path d="M1900 1185 c0 -23 3 -25 50 -25 38 0 50 -4 50 -15 0 -28 -55 -76 -108 -94 l-53 -18 40 -7 c42 -6 85 5 113 31 18 16 38 10 38 -13 0 -8 9 -14 20 -14 19 0 20 7 20 90 l0 90 -85 0 c-84 0 -85 0 -85 -25z" style="fill: rgb(255, 255, 255);"/>
  </g>
</svg>