<?xml version="1.0" encoding="UTF-8" standalone="no" ?>
<!DOCTYPE svg PUBLIC "-//W3C//DTD SVG 1.1//EN" "http://www.w3.org/Graphics/SVG/1.1/DTD/svg11.dtd">
<svg xmlns="http://www.w3.org/2000/svg" xmlns:xlink="http://www.w3.org/1999/xlink" version="1.1" width="1080" height="1080" viewBox="0 0 1080 1080" xml:space="preserve">
<desc>Created with Fabric.js 5.2.4</desc>
<defs>
</defs>
<rect x="0" y="0" width="100%" height="100%" fill="transparent"></rect>
<g transform="matrix(1 0 0 1 540 540)" id="3389b5ed-9a5d-465e-95cb-752e1fb54b5c"  >
</g>
<g transform="matrix(1 0 0 1 540 540)" id="dfc558dd-5b73-4969-a96e-14d3711ad638"  >
<rect style="stroke: none; stroke-width: 1; stroke-dasharray: none; stroke-linecap: butt; stroke-dashoffset: 0; stroke-linejoin: miter; stroke-miterlimit: 4; fill: rgb(255,255,255); fill-rule: nonzero; opacity: 1; visibility: hidden;" vector-effect="non-scaling-stroke"  x="-540" y="-540" rx="0" ry="0" width="1080" height="1080" />
</g>
<g transform="matrix(10.73 0 0 10.73 503.18 643.25)"  >
<path style="stroke: rgb(255,255,255); stroke-width: 0; stroke-dasharray: none; stroke-linecap: butt; stroke-dashoffset: 0; stroke-linejoin: miter; stroke-miterlimit: 4; fill: rgb(47,141,70); fill-rule: nonzero; opacity: 1;" vector-effect="non-scaling-stroke"  transform=" translate(-164.17, -1473.12)" d="M 193.664 1471.966 L 169.257 1471.966 C 169.71226408866744 1468.1090574727307 172.41358422863084 1464.8903348553506 176.13307552911962 1463.7729023004838 C 179.8525668296084 1462.6554697456168 183.8805085311532 1463.8525459483549 186.386 1466.82 L 189.936 1463.25 C 185.98953900335206 1458.8473084318196 179.79778123833222 1457.2223559692357 174.19794218260367 1459.1197357394785 C 168.59810312687515 1461.0171155097216 164.66937597594105 1466.0711671220276 164.21200000000002 1471.966 L 164.127 1471.966 C 163.66962402405898 1466.0711671220276 159.74089687312488 1461.0171155097216 154.14105781739633 1459.1197357394785 C 148.5412187616678 1457.2223559692357 142.34946099664796 1458.8473084318196 138.40300000000002 1463.25 L 141.95300000000003 1466.82 C 144.45849146884683 1463.852545948355 148.48643317039162 1462.6554697456168 152.2059244708804 1463.7729023004838 C 155.9254157713692 1464.8903348553506 158.6267359113326 1468.1090574727307 159.08200000000002 1471.966 L 134.674 1471.966 Q 134.631 1472.531 134.63 1473.107 C 134.63081502764925 1480.6053882034234 140.24973218021637 1486.9134561232693 147.6981245603754 1487.7779081258104 C 155.1465169405344 1488.6423601283518 162.06083019325462 1483.7888847660925 163.779 1476.49 L 164.557 1476.49 C 166.2678915306174 1483.7963349626798 173.18570862072283 1488.6583216045137 180.63965312527554 1487.7932252286896 C 188.09359762982825 1486.9281288528653 193.71397612155587 1480.610973400666 193.706 1473.107 Q 193.708 1472.531 193.664 1471.966 Z M 149.4 1482.855 C 145.3128154193573 1482.8553274856774 141.6593281203725 1480.3061507395275 140.249 1476.47 L 158.549 1476.47 C 157.1386819461283 1480.3052759999923 153.48636003845527 1482.854196688646 149.4 1482.855 Z M 178.93800000000002 1482.855 C 174.85054110726801 1482.8554541720712 171.19669733466 1480.3063072655914 169.78600000000003 1476.47 L 188.08600000000004 1476.47 C 186.6759349594853 1480.304588719322 183.02462741458967 1482.8533586629276 178.939 1482.855 Z" stroke-linecap="round" />
</g>
<g transform="matrix(0 0 0 0 0 0)"  >
<g style=""   >
</g>
</g>
<g transform="matrix(0 0 0 0 0 0)"  >
<g style=""   >
</g>
</g>
<g transform="matrix(18.62 0 0 18.62 507.52 321.64)"  >
<g style=""   >
		<g transform="matrix(1 0 0 1 0 0)"  >
<path style="stroke: none; stroke-width: 1; stroke-dasharray: none; stroke-linecap: butt; stroke-dashoffset: 0; stroke-linejoin: miter; stroke-miterlimit: 4; fill: rgb(255,255,255); fill-rule: nonzero; opacity: 1;" vector-effect="non-scaling-stroke"  transform=" translate(-15.89, -15.89)" d="M 31.771 20.319 C 31.771 19.845 31.492 19.448999999999998 31.095000000000002 19.253 L 31.095000000000002 11.9 C 31.185000000000002 11.866 31.241000000000003 11.781 31.240000000000002 11.686 C 31.240000000000002 11.591 31.178 11.507 31.091 11.475999999999999 L 15.92 6.125 C 15.725999999999999 6.056 15.514 6.056 15.318999999999999 6.125 L 0.15 11.477 C 0.061 11.508000000000001 0.0010000000000000009 11.592 0 11.687000000000001 C -0.0010000000000000009 11.782000000000002 0.056 11.867 0.144 11.901000000000002 L 15.292 17.797 C 15.503 17.878 15.736 17.878 15.947 17.797 L 30.049 12.305 L 30.049 19.252 C 29.653 19.447 29.374 19.846 29.374 20.317 C 29.374 20.809 29.674 21.236 30.102999999999998 21.419 C 29.674 22.266000000000002 29.374 24.004 29.374 24.5 C 29.374 25.161 29.910999999999998 25.697 30.572 25.697 C 31.232 25.697 31.769 25.160999999999998 31.769 24.5 C 31.769 24.004 31.468 22.266 31.04 21.419 C 31.47 21.238 31.771 20.811 31.771 20.319 z" stroke-linecap="round" />
</g>
		<g transform="matrix(1 0 0 1 -0.27 3.93)"  >
<path style="stroke: none; stroke-width: 1; stroke-dasharray: none; stroke-linecap: butt; stroke-dashoffset: 0; stroke-linejoin: miter; stroke-miterlimit: 4; fill: rgb(255,255,255); fill-rule: nonzero; opacity: 1;" vector-effect="non-scaling-stroke"  transform=" translate(-15.62, -19.82)" d="M 4.888 14.87 C 4.889 16.566 4.89 18.561999999999998 4.89 18.878999999999998 C 4.89 22.037 9.643 24.607999999999997 15.620000000000001 24.769 C 21.596 24.607999999999997 26.349 22.04 26.349 18.878999999999998 C 26.349 18.563999999999997 26.349 16.566999999999997 26.351 14.869999999999997 L 15.944999999999999 18.921 C 15.733999999999998 19.003 15.500999999999998 19.003 15.29 18.921 L 4.888 14.87 z" stroke-linecap="round" />
</g>
</g>
</g>
<g transform="matrix(0 0 0 0 0 0)"  >
<g style=""   >
</g>
</g>
<g transform="matrix(1 0 0 1 509.75 880.11)" style="" id="0af61db0-7b73-41e7-86d7-19774b1e09b3"  >
		<text xml:space="preserve" font-family="Alegreya" font-size="80" font-style="normal" font-weight="700" style="stroke: none; stroke-width: 1; stroke-dasharray: none; stroke-linecap: butt; stroke-dashoffset: 0; stroke-linejoin: miter; stroke-miterlimit: 4; fill: rgb(255,255,255); fill-rule: nonzero; opacity: 1; white-space: pre;" ><tspan x="-271.19" y="25.13" >Student Chapter</tspan></text>
</g>
<g transform="matrix(1 0 0 1 501.37 987.72)" style="" id="a263a016-d8fb-4291-a3f6-a009132d88b8"  >
		<text xml:space="preserve" font-family="Raleway" font-size="105" font-style="normal" font-weight="900" style="stroke: none; stroke-width: 1; stroke-dasharray: none; stroke-linecap: butt; stroke-dashoffset: 0; stroke-linejoin: miter; stroke-miterlimit: 4; fill: rgb(255,255,255); fill-rule: nonzero; opacity: 1; white-space: pre;" ><tspan x="-101.32" y="32.98" >VIIT</tspan></text>
</g>
</svg>