<svg xmlns="http://www.w3.org/2000/svg" xmlns:xlink="http://www.w3.org/1999/xlink" width="776" zoomAndPan="magnify" viewBox="0 0 582 327.749992" height="437" preserveAspectRatio="xMidYMid meet" version="1.0"><defs><g/><clipPath id="ad78e9e8db"><path d="M 0.222656 0 L 581.777344 0 L 581.777344 327.5 L 0.222656 327.5 Z M 0.222656 0 " clip-rule="nonzero"/></clipPath><clipPath id="8b82240af4"><path d="M 150.351562 207.261719 L 181.828125 207.261719 L 181.828125 235 L 150.351562 235 Z M 150.351562 207.261719 " clip-rule="nonzero"/></clipPath><clipPath id="2e4f771203"><path d="M 154 221 L 181.828125 221 L 181.828125 240 L 154 240 Z M 154 221 " clip-rule="nonzero"/></clipPath><clipPath id="275574b895"><path d="M 400.816406 227 L 435.292969 227 L 435.292969 238.636719 L 400.816406 238.636719 Z M 400.816406 227 " clip-rule="nonzero"/></clipPath><clipPath id="ddb83fed81"><path d="M 400.816406 201.914062 L 435.292969 201.914062 L 435.292969 238.636719 L 400.816406 238.636719 Z M 400.816406 201.914062 " clip-rule="nonzero"/></clipPath><clipPath id="85d49c187b"><path d="M 168.195312 93 L 267 93 L 267 191 L 168.195312 191 Z M 168.195312 93 " clip-rule="nonzero"/></clipPath><clipPath id="f13c71a79c"><path d="M 302 91 L 400.519531 91 L 400.519531 189 L 302 189 Z M 302 91 " clip-rule="nonzero"/></clipPath><clipPath id="a189565bc5"><path d="M 227 83.101562 L 342 83.101562 L 342 199.261719 L 227 199.261719 Z M 227 83.101562 " clip-rule="nonzero"/></clipPath><clipPath id="f878346599"><path d="M 243 103 L 279 103 L 279 134 L 243 134 Z M 243 103 " clip-rule="nonzero"/></clipPath><clipPath id="e4449f8eca"><path d="M 243.292969 110.941406 L 249.203125 103.324219 L 278.507812 126.058594 L 272.597656 133.675781 Z M 243.292969 110.941406 " clip-rule="nonzero"/></clipPath><clipPath id="21d69d49b8"><path d="M 243.292969 110.941406 L 249.203125 103.324219 L 278.507812 126.058594 L 272.597656 133.675781 Z M 243.292969 110.941406 " clip-rule="nonzero"/></clipPath><clipPath id="c9ca4f0cf6"><path d="M 245 98 L 273 98 L 273 121 L 245 121 Z M 245 98 " clip-rule="nonzero"/></clipPath><clipPath id="57a7310623"><path d="M 245.839844 109.601562 L 251.367188 98.234375 L 272.890625 108.691406 L 267.363281 120.0625 Z M 245.839844 109.601562 " clip-rule="nonzero"/></clipPath><clipPath id="b0cda58c09"><path d="M 245.839844 109.601562 L 251.367188 98.234375 L 272.890625 108.691406 L 267.363281 120.0625 Z M 245.839844 109.601562 " clip-rule="nonzero"/></clipPath><clipPath id="67f059c785"><path d="M 258 121 L 269 121 L 269 146 L 258 146 Z M 258 121 " clip-rule="nonzero"/></clipPath><clipPath id="18078b8fd2"><path d="M 258.570312 122.714844 L 265.558594 121.953125 L 268.023438 144.640625 L 261.035156 145.398438 Z M 258.570312 122.714844 " clip-rule="nonzero"/></clipPath><clipPath id="64cfe067f9"><path d="M 258.570312 122.714844 L 265.558594 121.953125 L 268.023438 144.640625 L 261.035156 145.398438 Z M 258.570312 122.714844 " clip-rule="nonzero"/></clipPath><clipPath id="f28b8d2472"><path d="M 254.566406 118.5 L 264.164062 118.5 L 264.164062 128.097656 L 254.566406 128.097656 Z M 254.566406 118.5 " clip-rule="nonzero"/></clipPath><clipPath id="710880923b"><path d="M 259.363281 118.5 C 256.714844 118.5 254.566406 120.648438 254.566406 123.300781 C 254.566406 125.949219 256.714844 128.097656 259.363281 128.097656 C 262.015625 128.097656 264.164062 125.949219 264.164062 123.300781 C 264.164062 120.648438 262.015625 118.5 259.363281 118.5 Z M 259.363281 118.5 " clip-rule="nonzero"/></clipPath><clipPath id="d630138059"><path d="M 185 109 L 209 109 L 209 151 L 185 151 Z M 185 109 " clip-rule="nonzero"/></clipPath><clipPath id="387c6b8cdc"><path d="M 187.136719 151.398438 L 184.085938 110.832031 L 206.519531 109.144531 L 209.566406 149.714844 Z M 187.136719 151.398438 " clip-rule="nonzero"/></clipPath><clipPath id="c6c90766f1"><path d="M 185.609375 131.113281 C 186.453125 142.316406 192.15625 151.023438 198.351562 150.558594 C 204.542969 150.089844 208.882812 140.632812 208.042969 129.429688 C 207.199219 118.226562 201.496094 109.523438 195.300781 109.988281 C 189.109375 110.453125 184.769531 119.914062 185.609375 131.113281 Z M 185.609375 131.113281 " clip-rule="nonzero"/></clipPath><clipPath id="054bca2064"><path d="M 185.300781 91.285156 L 263.242188 91.285156 L 263.242188 169.222656 L 185.300781 169.222656 Z M 185.300781 91.285156 " clip-rule="nonzero"/></clipPath><clipPath id="1e732c6f3a"><path d="M 298.484375 124.160156 L 354.105469 124.160156 L 354.105469 199.410156 L 298.484375 199.410156 Z M 298.484375 124.160156 " clip-rule="nonzero"/></clipPath><clipPath id="7a498731f6"><path d="M 326.292969 124.160156 C 310.9375 124.160156 298.484375 141.007812 298.484375 161.785156 C 298.484375 182.566406 310.9375 199.410156 326.292969 199.410156 C 341.652344 199.410156 354.105469 182.566406 354.105469 161.785156 C 354.105469 141.007812 341.652344 124.160156 326.292969 124.160156 Z M 326.292969 124.160156 " clip-rule="nonzero"/></clipPath><clipPath id="1800240793"><path d="M 333.285156 128.097656 L 374.921875 128.097656 L 374.921875 194.222656 L 333.285156 194.222656 Z M 333.285156 128.097656 " clip-rule="nonzero"/></clipPath><clipPath id="ee93e59d7f"><path d="M 354.105469 128.097656 C 342.605469 128.097656 333.285156 142.898438 333.285156 161.160156 C 333.285156 179.417969 342.605469 194.222656 354.105469 194.222656 C 365.601562 194.222656 374.921875 179.417969 374.921875 161.160156 C 374.921875 142.898438 365.601562 128.097656 354.105469 128.097656 Z M 354.105469 128.097656 " clip-rule="nonzero"/></clipPath><clipPath id="7dda6afaca"><path d="M 333.285156 113.78125 L 388.902344 113.78125 L 388.902344 189.03125 L 333.285156 189.03125 Z M 333.285156 113.78125 " clip-rule="nonzero"/></clipPath><clipPath id="59d14da4d4"><path d="M 361.09375 113.78125 C 345.734375 113.78125 333.285156 130.628906 333.285156 151.40625 C 333.285156 172.1875 345.734375 189.03125 361.09375 189.03125 C 376.453125 189.03125 388.902344 172.1875 388.902344 151.40625 C 388.902344 130.628906 376.453125 113.78125 361.09375 113.78125 Z M 361.09375 113.78125 " clip-rule="nonzero"/></clipPath><clipPath id="4de14257a6"><path d="M 305.390625 124.160156 L 380.332031 124.160156 L 380.332031 189.359375 L 305.390625 189.359375 Z M 305.390625 124.160156 " clip-rule="nonzero"/></clipPath><clipPath id="a36f0af243"><path d="M 340.074219 189.03125 L 348.230469 189.03125 L 348.230469 196.171875 L 340.074219 196.171875 Z M 340.074219 189.03125 " clip-rule="nonzero"/></clipPath><clipPath id="b1153bd3d4"><path d="M 344.152344 189.03125 L 348.230469 196.171875 L 340.074219 196.171875 Z M 344.152344 189.03125 " clip-rule="nonzero"/></clipPath></defs><g clip-path="url(#ad78e9e8db)"><path fill="#ffffff" d="M 0.222656 0 L 581.777344 0 L 581.777344 327.5 L 0.222656 327.5 Z M 0.222656 0 " fill-opacity="1" fill-rule="nonzero"/><path fill="#ffffff" d="M 0.222656 0 L 581.777344 0 L 581.777344 327.5 L 0.222656 327.5 Z M 0.222656 0 " fill-opacity="1" fill-rule="nonzero"/></g><g clip-path="url(#8b82240af4)"><path fill="#000000" d="M 167.960938 232.664062 C 167.4375 232.742188 166.894531 232.78125 166.328125 232.78125 C 163.523438 232.78125 161.242188 231.886719 159.480469 230.09375 C 157.75 228.277344 156.882812 226.066406 156.882812 223.472656 C 156.882812 220.398438 157.78125 217.953125 159.570312 216.132812 C 161.359375 214.3125 163.6875 213.402344 166.550781 213.402344 C 170.636719 213.402344 173.277344 215.117188 174.472656 218.550781 L 181.363281 218.550781 C 180.5 214.910156 178.691406 212.136719 175.949219 210.226562 C 173.175781 208.257812 170.011719 207.273438 166.460938 207.273438 C 161.898438 207.273438 158.0625 208.792969 154.960938 211.835938 C 151.886719 214.878906 150.351562 218.773438 150.351562 223.515625 C 150.351562 231.273438 155.320312 234.851562 162.632812 234.199219 C 164.488281 234.03125 166.300781 233.539062 167.960938 232.664062 Z M 167.960938 232.664062 " fill-opacity="1" fill-rule="nonzero"/></g><g clip-path="url(#2e4f771203)"><path fill="#278917" d="M 181.722656 221.367188 L 181.722656 238.328125 L 176.375 238.328125 L 176.394531 234.125 C 171.410156 241.117188 160.460938 240.027344 154.871094 234.4375 C 163.675781 237.953125 172.128906 233.964844 174.738281 227.097656 L 165.746094 227.097656 L 165.746094 221.367188 Z M 181.722656 221.367188 " fill-opacity="1" fill-rule="nonzero"/></g><g clip-path="url(#275574b895)"><path fill="#000000" d="M 435.085938 238.367188 L 425.570312 238.367188 L 423.394531 233.601562 C 422.996094 233.511719 422.597656 233.433594 422.203125 233.359375 C 422.027344 233.332031 421.851562 233.304688 421.675781 233.269531 C 421.503906 233.242188 421.324219 233.222656 421.152344 233.195312 C 421.0625 233.1875 420.976562 233.171875 420.886719 233.160156 L 420.625 233.132812 C 420.449219 233.117188 420.277344 233.09375 420.101562 233.082031 C 419.925781 233.074219 419.75 233.050781 419.574219 233.042969 L 419.046875 233.015625 C 418.695312 233.007812 418.347656 232.996094 417.996094 233.003906 C 416.160156 233.011719 414.320312 233.261719 412.46875 233.695312 L 410.335938 238.367188 L 400.816406 238.367188 L 400.964844 238.054688 C 401.101562 237.773438 401.257812 237.503906 401.417969 237.238281 C 401.640625 236.875 401.878906 236.519531 402.128906 236.175781 C 402.628906 235.488281 403.175781 234.835938 403.769531 234.21875 C 404.363281 233.601562 404.992188 233.015625 405.664062 232.472656 C 406.332031 231.929688 407.039062 231.421875 407.78125 230.960938 C 409.261719 230.035156 410.882812 229.289062 412.597656 228.765625 C 413.375 228.527344 414.175781 228.335938 414.980469 228.199219 C 415.066406 228.183594 415.148438 228.171875 415.230469 228.15625 C 415.679688 228.089844 416.128906 228.035156 416.582031 227.996094 C 416.808594 227.972656 417.035156 227.964844 417.261719 227.953125 L 417.605469 227.9375 L 417.945312 227.933594 C 418.9375 227.917969 419.933594 227.992188 420.914062 228.144531 C 421.734375 228.269531 422.539062 228.449219 423.332031 228.675781 C 423.550781 228.738281 423.761719 228.8125 423.976562 228.878906 C 424.085938 228.914062 424.191406 228.949219 424.296875 228.988281 L 424.613281 229.105469 L 424.925781 229.222656 C 425.03125 229.265625 425.136719 229.300781 425.238281 229.351562 L 425.855469 229.617188 C 426.660156 229.996094 427.449219 230.40625 428.1875 230.886719 L 428.464844 231.0625 C 428.558594 231.125 428.644531 231.1875 428.734375 231.25 L 429.273438 231.625 C 429.445312 231.753906 429.617188 231.890625 429.789062 232.023438 C 429.960938 232.15625 430.132812 232.289062 430.292969 232.433594 C 430.625 232.714844 430.949219 232.992188 431.257812 233.296875 C 431.410156 233.445312 431.570312 233.59375 431.71875 233.746094 C 431.867188 233.902344 432.015625 234.054688 432.160156 234.210938 C 432.457031 234.519531 432.726562 234.851562 432.996094 235.175781 C 433.0625 235.257812 433.132812 235.339844 433.199219 235.421875 L 433.390625 235.675781 C 433.519531 235.84375 433.644531 236.015625 433.769531 236.1875 C 433.832031 236.269531 433.890625 236.359375 433.949219 236.449219 C 434.011719 236.539062 434.070312 236.625 434.125 236.714844 C 434.242188 236.890625 434.355469 237.066406 434.46875 237.246094 C 434.683594 237.621094 434.898438 237.988281 435.085938 238.367188 Z M 435.085938 238.367188 " fill-opacity="1" fill-rule="nonzero"/></g><g clip-path="url(#ddb83fed81)"><path fill="#278917" d="M 435.085938 238.367188 C 434.894531 237.988281 434.683594 237.617188 434.46875 237.253906 C 434.359375 237.074219 434.242188 236.894531 434.125 236.71875 C 434.070312 236.628906 434.011719 236.542969 433.953125 236.453125 C 433.890625 236.367188 433.832031 236.277344 433.769531 236.191406 C 433.644531 236.023438 433.519531 235.851562 433.390625 235.683594 L 433.199219 235.429688 C 433.136719 235.34375 433.066406 235.261719 433 235.183594 C 432.726562 234.855469 432.457031 234.523438 432.160156 234.21875 C 432.015625 234.0625 431.867188 233.90625 431.71875 233.75 C 431.570312 233.597656 431.414062 233.453125 431.257812 233.300781 C 430.953125 233 430.625 232.71875 430.296875 232.4375 C 430.132812 232.296875 429.960938 232.160156 429.789062 232.03125 C 429.617188 231.898438 429.449219 231.761719 429.273438 231.632812 L 428.738281 231.253906 C 428.648438 231.191406 428.558594 231.128906 428.464844 231.070312 L 428.1875 230.894531 C 427.449219 230.414062 426.664062 230.003906 425.855469 229.625 L 425.242188 229.355469 C 425.140625 229.308594 425.035156 229.269531 424.929688 229.230469 L 424.613281 229.113281 L 424.296875 228.992188 C 424.191406 228.957031 424.085938 228.921875 423.976562 228.886719 C 423.761719 228.816406 423.550781 228.742188 423.332031 228.683594 C 422.542969 228.453125 421.734375 228.273438 420.914062 228.148438 L 417.96875 221.667969 L 414.984375 228.203125 C 414.171875 228.339844 413.375 228.53125 412.601562 228.769531 C 410.882812 229.292969 409.265625 230.039062 407.785156 230.964844 C 407.042969 231.425781 406.332031 231.933594 405.664062 232.476562 C 404.996094 233.019531 404.363281 233.605469 403.773438 234.222656 C 403.179688 234.839844 402.628906 235.492188 402.128906 236.179688 C 401.878906 236.523438 401.640625 236.878906 401.421875 237.242188 C 401.261719 237.507812 401.105469 237.777344 400.964844 238.058594 L 417.804688 201.925781 L 418.078125 201.925781 Z M 435.085938 238.367188 " fill-opacity="1" fill-rule="nonzero"/></g><g clip-path="url(#85d49c187b)"><path fill="#278917" d="M 197.164062 93.910156 C 197.164062 93.910156 196.65625 94.414062 195.703125 95.363281 C 195.464844 95.597656 195.199219 95.863281 194.90625 96.152344 C 194.628906 96.449219 194.332031 96.777344 194.007812 97.128906 C 193.6875 97.476562 193.34375 97.847656 192.980469 98.246094 C 192.621094 98.648438 192.257812 99.105469 191.867188 99.566406 C 191.488281 100.042969 191.054688 100.503906 190.664062 101.046875 C 190.265625 101.578125 189.851562 102.132812 189.417969 102.710938 C 189.195312 102.988281 188.996094 103.300781 188.789062 103.613281 C 188.582031 103.921875 188.371094 104.238281 188.15625 104.558594 C 187.9375 104.878906 187.722656 105.203125 187.5 105.53125 C 187.296875 105.875 187.09375 106.226562 186.882812 106.582031 C 185.195312 109.386719 183.570312 112.667969 182.304688 116.363281 C 181.027344 120.054688 180.117188 124.152344 179.769531 128.484375 C 179.734375 129.027344 179.671875 129.566406 179.65625 130.117188 C 179.640625 130.667969 179.628906 131.21875 179.613281 131.773438 C 179.546875 132.878906 179.652344 134.003906 179.679688 135.128906 L 179.699219 135.65625 C 179.703125 135.804688 179.695312 135.515625 179.699219 135.570312 L 179.707031 135.628906 L 179.726562 135.867188 L 179.8125 136.824219 C 179.871094 137.457031 179.902344 138.15625 180 138.636719 C 180.074219 139.164062 180.152344 139.695312 180.230469 140.234375 C 180.335938 140.796875 180.441406 141.367188 180.546875 141.9375 C 181.015625 144.207031 181.636719 146.46875 182.441406 148.691406 C 182.648438 149.242188 182.859375 149.792969 183.070312 150.347656 C 183.308594 150.890625 183.542969 151.4375 183.785156 151.980469 C 184.289062 153.058594 184.792969 154.144531 185.390625 155.183594 C 186.546875 157.28125 187.875 159.300781 189.34375 161.21875 C 190.824219 163.132812 192.464844 164.929688 194.238281 166.585938 C 197.773438 169.902344 201.816406 172.695312 206.160156 174.710938 C 208.328125 175.730469 210.558594 176.578125 212.820312 177.253906 C 215.082031 177.9375 217.386719 178.390625 219.679688 178.71875 C 220.253906 178.785156 220.828125 178.886719 221.398438 178.929688 C 221.976562 178.980469 222.546875 179.03125 223.121094 179.078125 L 223.226562 179.089844 L 223.28125 179.09375 C 223.339844 179.09375 222.929688 179.101562 223.132812 179.097656 L 223.378906 179.105469 L 223.859375 179.113281 L 224.828125 179.132812 L 225.789062 179.160156 L 226.269531 179.175781 C 226.425781 179.179688 226.597656 179.1875 226.714844 179.179688 C 227.242188 179.160156 227.765625 179.144531 228.285156 179.125 C 228.820312 179.097656 229.3125 179.132812 229.878906 179.050781 C 230.429688 178.992188 230.976562 178.9375 231.519531 178.882812 C 231.796875 178.859375 232.070312 178.832031 232.339844 178.808594 C 232.613281 178.78125 232.878906 178.726562 233.144531 178.6875 C 233.683594 178.601562 234.21875 178.519531 234.746094 178.4375 C 235.011719 178.394531 235.28125 178.367188 235.539062 178.308594 C 235.800781 178.25 236.058594 178.1875 236.316406 178.128906 C 237.351562 177.890625 238.382812 177.683594 239.371094 177.375 C 240.367188 177.089844 241.363281 176.835938 242.300781 176.464844 C 243.246094 176.125 244.1875 175.800781 245.078125 175.402344 C 246.898438 174.6875 248.570312 173.820312 250.167969 172.964844 C 250.945312 172.511719 251.730469 172.09375 252.464844 171.640625 C 253.183594 171.164062 253.882812 170.699219 254.578125 170.257812 C 255.265625 169.808594 255.882812 169.3125 256.511719 168.859375 C 256.824219 168.628906 257.125 168.402344 257.425781 168.179688 C 257.714844 167.941406 257.996094 167.707031 258.273438 167.480469 C 258.824219 167.019531 259.367188 166.582031 259.875 166.148438 C 260.351562 165.691406 260.824219 165.265625 261.273438 164.855469 C 262.1875 164.046875 262.90625 163.238281 263.585938 162.5625 C 263.914062 162.214844 264.234375 161.902344 264.507812 161.601562 C 264.773438 161.296875 265.019531 161.015625 265.234375 160.765625 C 266.128906 159.761719 266.601562 159.230469 266.601562 159.230469 C 266.601562 159.230469 266.378906 159.902344 265.917969 161.175781 C 265.800781 161.496094 265.671875 161.851562 265.527344 162.242188 C 265.375 162.632812 265.171875 163.035156 264.972656 163.488281 C 264.558594 164.382812 264.105469 165.4375 263.453125 166.53125 C 263.140625 167.089844 262.816406 167.683594 262.453125 168.300781 C 262.074219 168.898438 261.652344 169.511719 261.21875 170.160156 C 261.003906 170.488281 260.78125 170.816406 260.550781 171.15625 C 260.308594 171.484375 260.046875 171.800781 259.789062 172.136719 C 259.257812 172.789062 258.734375 173.503906 258.136719 174.183594 C 255.765625 176.949219 252.691406 179.78125 248.902344 182.363281 C 247.980469 183.054688 246.953125 183.617188 245.921875 184.226562 C 244.902344 184.859375 243.796875 185.386719 242.679688 185.945312 C 241.574219 186.542969 240.378906 186.96875 239.175781 187.460938 C 238.875 187.578125 238.574219 187.699219 238.269531 187.820312 C 237.964844 187.941406 237.648438 188.027344 237.335938 188.136719 C 236.710938 188.339844 236.078125 188.542969 235.441406 188.75 C 235.121094 188.847656 234.804688 188.960938 234.476562 189.050781 C 234.148438 189.132812 233.820312 189.210938 233.492188 189.292969 C 232.824219 189.449219 232.160156 189.605469 231.488281 189.761719 C 230.835938 189.9375 230.078125 190.023438 229.367188 190.144531 C 228.636719 190.257812 227.90625 190.375 227.167969 190.488281 C 226.96875 190.519531 226.824219 190.53125 226.664062 190.550781 L 226.1875 190.597656 L 225.230469 190.691406 L 224.265625 190.777344 L 223.785156 190.820312 L 223.542969 190.839844 L 223.070312 190.855469 C 222.347656 190.871094 221.617188 190.886719 220.882812 190.902344 C 220.152344 190.925781 219.414062 190.871094 218.671875 190.855469 C 215.710938 190.730469 212.691406 190.375 209.691406 189.714844 C 206.691406 189.046875 203.703125 188.113281 200.792969 186.910156 C 194.964844 184.515625 189.515625 180.949219 184.847656 176.566406 C 182.519531 174.367188 180.367188 171.976562 178.484375 169.398438 C 176.59375 166.832031 174.953125 164.101562 173.566406 161.277344 C 172.1875 158.449219 171.050781 155.535156 170.222656 152.574219 C 169.398438 149.609375 168.835938 146.625 168.53125 143.675781 C 168.46875 142.933594 168.410156 142.203125 168.347656 141.46875 C 168.308594 140.710938 168.292969 139.929688 168.273438 139.171875 C 168.238281 138.359375 168.269531 137.765625 168.292969 137.117188 L 168.328125 136.15625 L 168.339844 135.917969 L 168.339844 135.859375 C 168.34375 135.871094 168.339844 135.542969 168.34375 135.648438 L 168.402344 134.984375 C 168.542969 133.574219 168.609375 132.179688 168.859375 130.820312 C 168.96875 130.140625 169.074219 129.464844 169.183594 128.792969 C 169.296875 128.125 169.480469 127.472656 169.628906 126.816406 C 169.789062 126.167969 169.925781 125.519531 170.105469 124.886719 C 170.296875 124.253906 170.488281 123.628906 170.679688 123.011719 C 171.03125 121.765625 171.511719 120.582031 171.972656 119.421875 C 172.917969 117.113281 173.992188 114.960938 175.15625 112.988281 C 177.492188 109.042969 180.164062 105.824219 182.769531 103.289062 C 185.378906 100.75 187.882812 98.84375 190.070312 97.5 C 190.613281 97.164062 191.113281 96.835938 191.605469 96.546875 C 192.109375 96.277344 192.585938 96.027344 193.023438 95.792969 C 193.460938 95.5625 193.867188 95.351562 194.234375 95.15625 C 194.613281 94.992188 194.957031 94.839844 195.265625 94.707031 C 196.503906 94.1875 197.164062 93.910156 197.164062 93.910156 " fill-opacity="1" fill-rule="nonzero"/></g><path fill="#000000" d="M 262.121094 143.484375 C 262.121094 143.484375 262.121094 142.929688 262.121094 141.890625 C 262.125 141.628906 262.128906 141.339844 262.128906 141.023438 C 262.117188 140.707031 262.101562 140.367188 262.085938 139.996094 C 262.074219 139.632812 262.054688 139.242188 262.039062 138.824219 C 262.015625 138.40625 261.964844 137.960938 261.925781 137.492188 C 261.773438 135.628906 261.429688 133.394531 260.8125 130.9375 C 260.203125 128.480469 259.300781 125.792969 257.96875 123.082031 C 256.648438 120.367188 254.910156 117.628906 252.726562 115.070312 C 252.453125 114.753906 252.191406 114.425781 251.898438 114.117188 C 251.605469 113.808594 251.3125 113.5 251.015625 113.1875 C 250.449219 112.546875 249.773438 111.992188 249.144531 111.390625 L 248.90625 111.164062 L 248.847656 111.109375 C 248.765625 111.03125 248.925781 111.183594 248.894531 111.160156 L 248.714844 111.011719 L 248.144531 110.53125 C 247.769531 110.222656 247.371094 109.855469 247.058594 109.644531 C 246.726562 109.394531 246.394531 109.144531 246.0625 108.894531 C 245.695312 108.640625 245.324219 108.386719 244.957031 108.132812 C 243.449219 107.160156 241.878906 106.253906 240.230469 105.472656 C 239.8125 105.289062 239.394531 105.105469 238.976562 104.917969 C 238.546875 104.75 238.117188 104.585938 237.6875 104.417969 C 236.824219 104.105469 235.957031 103.78125 235.0625 103.539062 C 231.503906 102.507812 227.738281 102.019531 223.988281 102.152344 C 220.242188 102.269531 216.507812 102.953125 213.023438 104.214844 C 212.582031 104.355469 212.160156 104.542969 211.730469 104.714844 L 211.089844 104.972656 L 210.464844 105.265625 C 209.613281 105.621094 208.800781 106.046875 207.992188 106.46875 C 206.382812 107.332031 204.886719 108.359375 203.441406 109.421875 C 203.089844 109.699219 202.71875 109.953125 202.382812 110.242188 C 202.042969 110.53125 201.703125 110.820312 201.367188 111.105469 L 201.300781 111.160156 L 201.269531 111.183594 C 201.238281 111.21875 201.457031 110.992188 201.347656 111.101562 L 201.214844 111.234375 L 200.945312 111.496094 L 200.40625 112.015625 C 200.054688 112.351562 199.664062 112.703125 199.347656 113.023438 C 199.070312 113.320312 198.792969 113.613281 198.519531 113.910156 C 198.242188 114.214844 197.953125 114.46875 197.6875 114.820312 C 197.417969 115.152344 197.148438 115.484375 196.882812 115.808594 L 196.476562 116.300781 C 196.34375 116.460938 196.226562 116.636719 196.101562 116.804688 C 194.085938 119.492188 192.527344 122.335938 191.375 125.125 C 190.769531 126.511719 190.332031 127.902344 189.925781 129.238281 C 189.746094 129.914062 189.546875 130.570312 189.390625 131.222656 C 189.261719 131.871094 189.128906 132.511719 188.992188 133.132812 C 188.863281 133.753906 188.796875 134.363281 188.699219 134.953125 C 188.65625 135.25 188.613281 135.539062 188.574219 135.824219 C 188.546875 136.113281 188.519531 136.394531 188.492188 136.667969 C 188.441406 137.226562 188.390625 137.761719 188.34375 138.273438 C 188.324219 138.785156 188.304688 139.277344 188.289062 139.746094 C 188.226562 140.6875 188.277344 141.523438 188.277344 142.261719 C 188.285156 142.632812 188.28125 142.980469 188.296875 143.292969 C 188.320312 143.605469 188.339844 143.890625 188.355469 144.148438 C 188.417969 145.183594 188.449219 145.734375 188.449219 145.734375 C 188.449219 145.734375 188.207031 145.234375 187.757812 144.296875 C 187.648438 144.058594 187.523438 143.792969 187.386719 143.5 C 187.257812 143.203125 187.148438 142.871094 187.011719 142.515625 C 186.75 141.800781 186.417969 140.976562 186.175781 140.019531 C 186.042969 139.542969 185.898438 139.039062 185.757812 138.507812 C 185.640625 137.972656 185.535156 137.40625 185.414062 136.816406 C 185.355469 136.519531 185.296875 136.21875 185.234375 135.90625 C 185.191406 135.597656 185.160156 135.277344 185.121094 134.957031 C 185.050781 134.308594 184.945312 133.628906 184.902344 132.929688 C 184.6875 130.121094 184.820312 126.894531 185.476562 123.410156 C 185.605469 122.527344 185.859375 121.660156 186.089844 120.761719 C 186.300781 119.855469 186.617188 118.964844 186.921875 118.050781 C 187.203125 117.121094 187.621094 116.230469 188.007812 115.308594 C 188.378906 114.371094 188.886719 113.488281 189.347656 112.558594 C 189.574219 112.089844 189.832031 111.640625 190.117188 111.199219 C 190.394531 110.75 190.671875 110.300781 190.953125 109.84375 C 191.214844 109.390625 191.582031 108.933594 191.90625 108.472656 C 192.238281 108.011719 192.578125 107.550781 192.917969 107.085938 C 193.246094 106.660156 193.550781 106.308594 193.867188 105.914062 L 194.347656 105.34375 L 194.710938 104.914062 L 194.960938 104.648438 C 195.351562 104.246094 195.742188 103.839844 196.132812 103.433594 C 196.523438 103.019531 196.953125 102.644531 197.367188 102.25 C 199.042969 100.6875 200.898438 99.242188 202.902344 97.964844 C 203.910156 97.335938 204.929688 96.710938 206.003906 96.160156 L 206.808594 95.742188 L 207.628906 95.363281 C 208.179688 95.117188 208.730469 94.847656 209.296875 94.636719 C 213.789062 92.746094 218.71875 91.714844 223.667969 91.558594 C 226.140625 91.492188 228.625 91.621094 231.0625 92 C 233.503906 92.363281 235.886719 92.984375 238.191406 93.761719 C 240.496094 94.539062 242.707031 95.519531 244.773438 96.695312 C 246.847656 97.855469 248.792969 99.171875 250.5625 100.628906 C 251 101 251.4375 101.367188 251.867188 101.738281 C 252.304688 102.128906 252.742188 102.542969 253.167969 102.945312 C 253.632812 103.371094 253.941406 103.710938 254.285156 104.078125 L 254.789062 104.621094 L 254.914062 104.757812 L 254.945312 104.792969 C 254.941406 104.785156 255.117188 104.964844 255.058594 104.90625 L 255.125 104.988281 L 255.390625 105.300781 C 256.085938 106.152344 256.808594 106.949219 257.414062 107.832031 C 257.730469 108.261719 258.039062 108.6875 258.347656 109.113281 C 258.652344 109.542969 258.90625 110 259.183594 110.4375 C 261.371094 113.957031 262.84375 117.59375 263.726562 121.019531 C 264.605469 124.457031 264.902344 127.675781 264.863281 130.488281 C 264.824219 133.300781 264.496094 135.710938 264.035156 137.640625 C 263.921875 138.121094 263.832031 138.578125 263.71875 139.003906 C 263.589844 139.425781 263.46875 139.820312 263.355469 140.191406 C 263.242188 140.554688 263.136719 140.890625 263.039062 141.199219 C 262.925781 141.496094 262.820312 141.765625 262.722656 142.007812 C 262.332031 142.96875 262.121094 143.484375 262.121094 143.484375 " fill-opacity="1" fill-rule="nonzero"/><g clip-path="url(#f13c71a79c)"><path fill="#278917" d="M 371.894531 188.542969 C 371.894531 188.542969 372.402344 188.035156 373.351562 187.085938 C 373.589844 186.851562 373.859375 186.589844 374.152344 186.300781 C 374.429688 186.003906 374.726562 185.675781 375.050781 185.324219 C 375.371094 184.976562 375.710938 184.605469 376.078125 184.207031 C 376.4375 183.804688 376.800781 183.347656 377.191406 182.882812 C 377.570312 182.410156 378 181.949219 378.390625 181.40625 C 378.789062 180.875 379.207031 180.320312 379.640625 179.742188 C 379.863281 179.460938 380.0625 179.152344 380.265625 178.835938 C 380.472656 178.527344 380.6875 178.210938 380.902344 177.890625 C 381.117188 177.574219 381.335938 177.25 381.558594 176.917969 C 381.757812 176.578125 381.964844 176.226562 382.171875 175.871094 C 383.859375 173.066406 385.488281 169.78125 386.753906 166.085938 C 388.027344 162.398438 388.941406 158.300781 389.285156 153.964844 C 389.320312 153.421875 389.386719 152.882812 389.402344 152.335938 C 389.414062 151.785156 389.429688 151.234375 389.441406 150.679688 C 389.511719 149.574219 389.402344 148.449219 389.378906 147.324219 L 389.363281 146.898438 L 389.359375 146.792969 C 389.355469 146.648438 389.359375 146.933594 389.359375 146.882812 L 389.351562 146.824219 L 389.328125 146.582031 L 389.246094 145.625 C 389.183594 144.992188 389.152344 144.296875 389.058594 143.816406 C 388.984375 143.285156 388.902344 142.753906 388.828125 142.21875 C 388.722656 141.652344 388.617188 141.085938 388.511719 140.515625 C 388.042969 138.246094 387.421875 135.984375 386.617188 133.761719 C 386.40625 133.210938 386.195312 132.65625 385.988281 132.105469 C 385.75 131.5625 385.511719 131.015625 385.273438 130.46875 C 384.769531 129.394531 384.261719 128.308594 383.664062 127.269531 C 382.511719 125.167969 381.183594 123.152344 379.710938 121.230469 C 378.234375 119.316406 376.589844 117.519531 374.820312 115.867188 C 371.28125 112.546875 367.242188 109.757812 362.898438 107.742188 C 360.730469 106.722656 358.5 105.875 356.238281 105.199219 C 353.976562 104.515625 351.671875 104.0625 349.378906 103.730469 C 348.800781 103.664062 348.230469 103.566406 347.65625 103.519531 C 347.082031 103.472656 346.507812 103.421875 345.9375 103.371094 L 345.832031 103.363281 L 345.777344 103.359375 C 345.714844 103.355469 346.125 103.347656 345.925781 103.351562 L 345.679688 103.347656 L 345.195312 103.339844 L 344.230469 103.320312 L 343.269531 103.292969 L 342.789062 103.277344 C 342.628906 103.269531 342.460938 103.261719 342.339844 103.273438 C 341.816406 103.292969 341.289062 103.308594 340.769531 103.328125 C 340.238281 103.351562 339.742188 103.320312 339.179688 103.398438 C 338.625 103.457031 338.078125 103.511719 337.535156 103.570312 C 337.261719 103.59375 336.988281 103.617188 336.71875 103.644531 C 336.445312 103.671875 336.179688 103.726562 335.914062 103.761719 C 335.371094 103.847656 334.839844 103.929688 334.308594 104.011719 C 334.042969 104.058594 333.777344 104.085938 333.515625 104.144531 C 333.257812 104.203125 332.996094 104.261719 332.738281 104.324219 C 331.707031 104.5625 330.671875 104.769531 329.683594 105.074219 C 328.691406 105.363281 327.691406 105.617188 326.757812 105.988281 C 325.8125 106.324219 324.867188 106.652344 323.980469 107.050781 C 322.160156 107.765625 320.488281 108.632812 318.890625 109.484375 C 318.109375 109.9375 317.324219 110.359375 316.59375 110.8125 C 315.875 111.285156 315.175781 111.753906 314.476562 112.191406 C 313.792969 112.644531 313.175781 113.140625 312.546875 113.59375 C 312.234375 113.824219 311.933594 114.050781 311.632812 114.273438 C 311.34375 114.511719 311.0625 114.742188 310.785156 114.972656 C 310.230469 115.429688 309.6875 115.871094 309.183594 116.300781 C 308.707031 116.757812 308.230469 117.1875 307.785156 117.597656 C 306.871094 118.402344 306.152344 119.210938 305.472656 119.890625 C 305.140625 120.234375 304.824219 120.550781 304.550781 120.851562 C 304.285156 121.15625 304.039062 121.4375 303.820312 121.683594 C 302.929688 122.6875 302.453125 123.222656 302.453125 123.222656 C 302.453125 123.222656 302.675781 122.546875 303.140625 121.273438 C 303.257812 120.957031 303.386719 120.597656 303.53125 120.207031 C 303.683594 119.816406 303.882812 119.414062 304.085938 118.964844 C 304.496094 118.070312 304.949219 117.011719 305.605469 115.917969 C 305.914062 115.363281 306.242188 114.765625 306.601562 114.148438 C 306.984375 113.554688 307.40625 112.941406 307.835938 112.289062 C 308.054688 111.964844 308.277344 111.632812 308.503906 111.296875 C 308.746094 110.96875 309.007812 110.648438 309.265625 110.316406 C 309.796875 109.664062 310.320312 108.949219 310.921875 108.265625 C 313.292969 105.503906 316.367188 102.671875 320.152344 100.085938 C 321.078125 99.398438 322.101562 98.835938 323.136719 98.226562 C 324.15625 97.589844 325.257812 97.066406 326.378906 96.507812 C 327.484375 95.910156 328.679688 95.484375 329.878906 94.992188 C 330.179688 94.871094 330.484375 94.753906 330.789062 94.632812 C 331.09375 94.511719 331.410156 94.421875 331.71875 94.316406 C 332.347656 94.113281 332.980469 93.90625 333.617188 93.703125 C 333.9375 93.601562 334.253906 93.488281 334.582031 93.398438 C 334.910156 93.320312 335.238281 93.238281 335.566406 93.160156 C 336.230469 93.003906 336.898438 92.847656 337.566406 92.691406 C 338.222656 92.511719 338.976562 92.429688 339.691406 92.304688 C 340.421875 92.191406 341.152344 92.078125 341.890625 91.964844 C 342.085938 91.929688 342.234375 91.917969 342.390625 91.902344 L 342.871094 91.855469 L 343.828125 91.761719 L 344.789062 91.675781 L 345.273438 91.632812 L 345.515625 91.613281 L 345.984375 91.597656 C 346.710938 91.582031 347.441406 91.5625 348.171875 91.546875 C 348.90625 91.527344 349.640625 91.582031 350.382812 91.597656 C 353.34375 91.722656 356.363281 92.074219 359.367188 92.738281 C 362.367188 93.402344 365.355469 94.339844 368.261719 95.542969 C 374.089844 97.933594 379.539062 101.503906 384.210938 105.886719 C 386.535156 108.085938 388.691406 110.476562 390.574219 113.050781 C 392.464844 115.621094 394.105469 118.351562 395.492188 121.175781 C 396.871094 124 398.003906 126.917969 398.835938 129.878906 C 399.660156 132.84375 400.21875 135.828125 400.527344 138.777344 C 400.589844 139.515625 400.648438 140.25 400.710938 140.984375 C 400.75 141.742188 400.765625 142.519531 400.785156 143.28125 C 400.816406 144.089844 400.789062 144.683594 400.765625 145.335938 L 400.726562 146.296875 L 400.71875 146.535156 L 400.714844 146.59375 C 400.714844 146.582031 400.714844 146.910156 400.710938 146.800781 L 400.703125 146.933594 L 400.65625 147.464844 C 400.515625 148.875 400.445312 150.269531 400.195312 151.628906 C 400.085938 152.3125 399.984375 152.984375 399.875 153.65625 C 399.757812 154.324219 399.578125 154.980469 399.429688 155.632812 C 399.269531 156.28125 399.128906 156.929688 398.953125 157.566406 C 398.757812 158.195312 398.570312 158.820312 398.378906 159.441406 C 398.027344 160.683594 397.546875 161.867188 397.085938 163.027344 C 396.136719 165.339844 395.066406 167.492188 393.902344 169.464844 C 391.566406 173.410156 388.890625 176.628906 386.285156 179.164062 C 383.679688 181.703125 381.175781 183.609375 378.988281 184.949219 C 378.445312 185.289062 377.945312 185.617188 377.453125 185.90625 C 376.945312 186.175781 376.472656 186.425781 376.03125 186.660156 C 375.597656 186.886719 375.191406 187.101562 374.824219 187.292969 C 374.445312 187.460938 374.101562 187.609375 373.792969 187.746094 C 372.554688 188.265625 371.894531 188.542969 371.894531 188.542969 " fill-opacity="1" fill-rule="nonzero"/></g><path fill="#000000" d="M 306.933594 138.96875 C 306.933594 138.96875 306.933594 139.523438 306.933594 140.5625 C 306.929688 140.820312 306.929688 141.109375 306.925781 141.429688 C 306.9375 141.742188 306.953125 142.085938 306.96875 142.457031 C 306.984375 142.816406 307 143.207031 307.019531 143.628906 C 307.042969 144.042969 307.09375 144.492188 307.132812 144.957031 C 307.285156 146.824219 307.628906 149.058594 308.242188 151.515625 C 308.855469 153.972656 309.757812 156.65625 311.085938 159.371094 C 312.40625 162.085938 314.148438 164.824219 316.328125 167.378906 C 316.605469 167.695312 316.867188 168.027344 317.160156 168.335938 C 317.449219 168.644531 317.746094 168.953125 318.042969 169.261719 C 318.605469 169.902344 319.28125 170.460938 319.910156 171.0625 L 320.152344 171.285156 L 320.210938 171.339844 C 320.292969 171.421875 320.132812 171.265625 320.164062 171.292969 L 320.339844 171.441406 L 320.910156 171.917969 C 321.289062 172.230469 321.6875 172.597656 322 172.808594 C 322.332031 173.058594 322.660156 173.308594 322.996094 173.558594 C 323.363281 173.808594 323.734375 174.0625 324.101562 174.316406 C 325.609375 175.289062 327.175781 176.199219 328.828125 176.976562 C 329.246094 177.164062 329.664062 177.347656 330.082031 177.535156 C 330.511719 177.699219 330.9375 177.867188 331.367188 178.035156 C 332.234375 178.34375 333.101562 178.667969 333.996094 178.914062 C 337.550781 179.945312 341.320312 180.433594 345.070312 180.300781 C 348.816406 180.183594 352.550781 179.496094 356.035156 178.238281 C 356.476562 178.097656 356.898438 177.90625 357.328125 177.738281 L 357.96875 177.480469 L 358.59375 177.1875 C 359.441406 176.832031 360.253906 176.40625 361.0625 175.984375 C 362.675781 175.121094 364.171875 174.09375 365.617188 173.03125 C 365.96875 172.753906 366.335938 172.5 366.675781 172.207031 C 367.011719 171.917969 367.355469 171.632812 367.691406 171.34375 L 367.753906 171.292969 L 367.785156 171.265625 C 367.820312 171.234375 367.601562 171.460938 367.710938 171.347656 L 367.84375 171.214844 L 368.113281 170.957031 L 368.652344 170.4375 C 369.003906 170.101562 369.394531 169.746094 369.707031 169.429688 C 369.984375 169.132812 370.261719 168.835938 370.539062 168.542969 C 370.8125 168.234375 371.101562 167.984375 371.367188 167.632812 C 371.636719 167.296875 371.90625 166.96875 372.171875 166.640625 L 372.578125 166.152344 C 372.714844 165.988281 372.828125 165.816406 372.953125 165.648438 C 374.96875 162.960938 376.53125 160.117188 377.683594 157.328125 C 378.285156 155.941406 378.726562 154.550781 379.132812 153.210938 C 379.3125 152.539062 379.511719 151.878906 379.664062 151.230469 C 379.796875 150.578125 379.925781 149.941406 380.066406 149.320312 C 380.195312 148.699219 380.261719 148.089844 380.355469 147.5 C 380.398438 147.203125 380.441406 146.910156 380.484375 146.628906 C 380.511719 146.339844 380.539062 146.058594 380.566406 145.78125 C 380.617188 145.226562 380.667969 144.691406 380.714844 144.179688 C 380.734375 143.664062 380.75 143.171875 380.765625 142.707031 C 380.828125 141.765625 380.78125 140.929688 380.78125 140.1875 C 380.769531 139.820312 380.777344 139.472656 380.757812 139.160156 C 380.738281 138.847656 380.71875 138.5625 380.703125 138.304688 C 380.640625 137.269531 380.609375 136.714844 380.609375 136.714844 C 380.609375 136.714844 380.847656 137.214844 381.300781 138.15625 C 381.410156 138.394531 381.53125 138.660156 381.667969 138.953125 C 381.796875 139.25 381.90625 139.578125 382.042969 139.9375 C 382.308594 140.652344 382.636719 141.476562 382.878906 142.429688 C 383.015625 142.90625 383.160156 143.410156 383.300781 143.945312 C 383.417969 144.480469 383.523438 145.046875 383.644531 145.636719 C 383.699219 145.933594 383.761719 146.234375 383.820312 146.542969 C 383.867188 146.855469 383.898438 147.171875 383.9375 147.496094 C 384.007812 148.144531 384.109375 148.824219 384.15625 149.523438 C 384.371094 152.332031 384.238281 155.558594 383.582031 159.042969 C 383.453125 159.921875 383.199219 160.789062 382.96875 161.6875 C 382.757812 162.59375 382.441406 163.484375 382.132812 164.402344 C 381.855469 165.332031 381.4375 166.21875 381.050781 167.144531 C 380.679688 168.078125 380.171875 168.960938 379.710938 169.890625 C 379.484375 170.359375 379.222656 170.8125 378.941406 171.253906 C 378.664062 171.703125 378.386719 172.152344 378.105469 172.605469 C 377.84375 173.0625 377.476562 173.519531 377.152344 173.980469 C 376.816406 174.4375 376.476562 174.902344 376.140625 175.363281 C 375.808594 175.792969 375.507812 176.140625 375.1875 176.539062 L 374.710938 177.109375 L 374.464844 177.394531 L 374.347656 177.535156 L 374.09375 177.800781 C 373.707031 178.207031 373.316406 178.613281 372.925781 179.019531 C 372.53125 179.433594 372.105469 179.808594 371.6875 180.203125 C 370.015625 181.765625 368.15625 183.210938 366.15625 184.488281 C 365.148438 185.117188 364.125 185.742188 363.054688 186.292969 L 362.25 186.710938 L 361.425781 187.085938 C 360.875 187.335938 360.328125 187.601562 359.757812 187.816406 C 355.269531 189.707031 350.339844 190.734375 345.390625 190.890625 C 342.917969 190.960938 340.429688 190.832031 337.996094 190.453125 C 335.554688 190.089844 333.167969 189.464844 330.867188 188.6875 C 328.5625 187.910156 326.351562 186.933594 324.28125 185.757812 C 322.210938 184.597656 320.265625 183.28125 318.492188 181.824219 C 318.054688 181.453125 317.621094 181.085938 317.1875 180.714844 C 316.753906 180.324219 316.316406 179.910156 315.886719 179.503906 C 315.425781 179.082031 315.117188 178.742188 314.773438 178.375 L 314.269531 177.828125 L 314.144531 177.691406 L 314.109375 177.660156 C 314.117188 177.664062 313.9375 177.488281 313.996094 177.542969 L 313.933594 177.464844 L 313.667969 177.148438 C 312.972656 176.300781 312.25 175.503906 311.640625 174.621094 C 311.328125 174.191406 311.019531 173.761719 310.707031 173.339844 C 310.40625 172.910156 310.148438 172.453125 309.875 172.015625 C 307.6875 168.496094 306.214844 164.859375 305.332031 161.433594 C 304.453125 157.996094 304.15625 154.777344 304.191406 151.964844 C 304.230469 149.148438 304.558594 146.742188 305.019531 144.8125 C 305.132812 144.328125 305.226562 143.875 305.339844 143.449219 C 305.46875 143.027344 305.589844 142.628906 305.703125 142.257812 C 305.816406 141.894531 305.917969 141.5625 306.015625 141.25 C 306.132812 140.957031 306.238281 140.6875 306.332031 140.445312 C 306.726562 139.480469 306.933594 138.96875 306.933594 138.96875 " fill-opacity="1" fill-rule="nonzero"/><g clip-path="url(#a189565bc5)"><path fill="#278917" d="M 341.988281 84.308594 C 341.988281 84.308594 341.8125 84.351562 341.472656 84.425781 C 341.144531 84.507812 340.640625 84.648438 339.988281 84.796875 C 339.660156 84.875 339.300781 84.960938 338.898438 85.058594 C 338.511719 85.167969 338.082031 85.285156 337.625 85.410156 C 336.714844 85.648438 335.671875 85.984375 334.515625 86.335938 C 332.214844 87.097656 329.480469 88.085938 326.515625 89.46875 C 323.550781 90.84375 320.347656 92.59375 317.136719 94.789062 C 315.546875 95.921875 313.910156 97.074219 312.363281 98.441406 C 311.570312 99.097656 310.8125 99.816406 310.035156 100.519531 C 309.648438 100.875 309.289062 101.269531 308.90625 101.636719 L 308.339844 102.195312 L 308.304688 102.230469 C 308.359375 102.183594 308.125 102.390625 308.421875 102.128906 L 308.347656 102.210938 L 308.195312 102.378906 L 307.886719 102.710938 C 307.480469 103.15625 307.066406 103.601562 306.65625 104.050781 C 306.554688 104.160156 306.433594 104.277344 306.351562 104.382812 L 306.132812 104.671875 L 305.691406 105.25 C 305.398438 105.648438 305.101562 105.976562 304.804688 106.429688 C 304.496094 106.863281 304.191406 107.304688 303.882812 107.746094 C 303.5625 108.171875 303.296875 108.652344 303.015625 109.117188 C 302.738281 109.589844 302.425781 110.03125 302.167969 110.519531 C 301.652344 111.503906 301.101562 112.460938 300.636719 113.5 C 298.675781 117.578125 297.230469 122.210938 295.976562 127.167969 C 295.351562 129.648438 294.8125 132.234375 294.246094 134.855469 C 293.703125 137.546875 293.160156 140.25 292.617188 142.949219 C 291.476562 148.445312 290.238281 154.125 288.414062 159.777344 C 288.195312 160.484375 287.960938 161.1875 287.703125 161.894531 C 287.449219 162.59375 287.210938 163.296875 286.945312 163.996094 C 286.382812 165.394531 285.84375 166.777344 285.199219 168.148438 C 284.609375 169.523438 283.878906 170.863281 283.191406 172.191406 C 282.835938 172.851562 282.4375 173.5 282.058594 174.148438 L 281.480469 175.113281 L 280.855469 176.054688 C 280.4375 176.675781 280.023438 177.296875 279.597656 177.910156 C 279.140625 178.5 278.683594 179.089844 278.230469 179.679688 C 278 179.96875 277.777344 180.261719 277.542969 180.546875 L 276.8125 181.378906 C 276.316406 181.925781 275.828125 182.464844 275.339844 183.003906 C 274.816406 183.515625 274.300781 184.019531 273.785156 184.523438 L 273.011719 185.265625 L 272.960938 185.3125 C 272.71875 185.554688 272.867188 185.402344 272.804688 185.464844 L 272.714844 185.539062 L 272.179688 185.984375 C 271.703125 186.378906 271.230469 186.773438 270.761719 187.164062 C 270.25 187.582031 269.648438 188.023438 269.105469 188.441406 C 267.988281 189.324219 266.90625 190.011719 265.832031 190.730469 C 264.75 191.425781 263.648438 192.058594 262.570312 192.671875 C 260.371094 193.824219 258.230469 194.878906 256.097656 195.683594 C 251.847656 197.335938 247.808594 198.304688 244.222656 198.808594 C 240.632812 199.316406 237.492188 199.394531 234.941406 199.242188 C 234.300781 199.199219 233.703125 199.191406 233.136719 199.128906 C 232.574219 199.0625 232.046875 199.003906 231.554688 198.945312 C 230.582031 198.851562 229.753906 198.683594 229.089844 198.554688 C 227.761719 198.3125 227.070312 198.132812 227.070312 198.132812 C 227.070312 198.132812 227.242188 198.09375 227.582031 198.015625 C 227.921875 197.933594 228.417969 197.789062 229.066406 197.636719 C 229.710938 197.476562 230.503906 197.296875 231.425781 197.023438 C 232.339844 196.757812 233.390625 196.480469 234.539062 196.085938 C 235.691406 195.730469 236.941406 195.257812 238.285156 194.761719 C 239.613281 194.199219 241.050781 193.664062 242.519531 192.933594 C 245.472656 191.542969 248.664062 189.78125 251.851562 187.550781 C 252.660156 187.011719 253.441406 186.402344 254.25 185.808594 C 255.058594 185.214844 255.820312 184.527344 256.625 183.886719 C 257.382812 183.183594 258.1875 182.519531 258.945312 181.78125 C 259.6875 181.03125 260.507812 180.296875 261.15625 179.546875 C 261.503906 179.171875 261.855469 178.792969 262.207031 178.410156 C 262.609375 177.949219 263.015625 177.488281 263.421875 177.023438 L 263.878906 176.496094 L 263.957031 176.410156 C 263.917969 176.445312 264.097656 176.265625 263.878906 176.480469 L 263.910156 176.441406 L 264.390625 175.800781 C 264.714844 175.378906 265.039062 174.957031 265.367188 174.53125 C 266.566406 172.738281 267.773438 170.929688 268.757812 168.886719 L 269.144531 168.140625 L 269.496094 167.359375 C 269.726562 166.832031 269.980469 166.324219 270.207031 165.789062 C 270.640625 164.703125 271.097656 163.636719 271.484375 162.492188 C 272.304688 160.253906 273.003906 157.878906 273.652344 155.421875 C 274.957031 150.511719 275.992188 145.226562 277.109375 139.769531 C 277.679688 137.039062 278.257812 134.253906 278.917969 131.460938 C 279.257812 130.050781 279.582031 128.65625 279.976562 127.242188 C 280.347656 125.835938 280.75 124.421875 281.183594 123.015625 C 282.925781 117.390625 285.191406 111.757812 288.382812 106.6875 C 289.132812 105.402344 290.039062 104.199219 290.886719 102.996094 C 291.320312 102.402344 291.804688 101.835938 292.261719 101.265625 C 292.730469 100.703125 293.179688 100.128906 293.691406 99.605469 C 294.1875 99.078125 294.683594 98.550781 295.175781 98.027344 C 295.664062 97.507812 296.273438 96.984375 296.8125 96.476562 L 297.640625 95.71875 L 298.058594 95.34375 C 298.1875 95.230469 298.300781 95.152344 298.421875 95.050781 C 298.90625 94.679688 299.390625 94.308594 299.867188 93.941406 L 300.40625 93.53125 L 300.492188 93.460938 C 300.820312 93.179688 300.613281 93.363281 300.699219 93.289062 L 300.75 93.253906 L 301.566406 92.691406 C 302.109375 92.316406 302.644531 91.941406 303.191406 91.597656 C 304.296875 90.921875 305.363281 90.238281 306.476562 89.671875 C 308.65625 88.476562 310.839844 87.496094 312.960938 86.667969 C 317.222656 85.050781 321.261719 84.105469 324.847656 83.617188 C 328.4375 83.125 331.570312 83.078125 334.121094 83.199219 C 334.753906 83.238281 335.355469 83.28125 335.921875 83.320312 C 336.480469 83.351562 337.023438 83.445312 337.511719 83.5 C 338 83.5625 338.453125 83.621094 338.863281 83.675781 C 339.269531 83.75 339.636719 83.820312 339.96875 83.882812 C 340.628906 84.003906 341.128906 84.117188 341.472656 84.1875 C 341.8125 84.269531 341.988281 84.308594 341.988281 84.308594 " fill-opacity="1" fill-rule="nonzero"/></g><g clip-path="url(#f878346599)"><g clip-path="url(#e4449f8eca)"><g clip-path="url(#21d69d49b8)"><path fill="#ffffff" d="M 243.292969 110.941406 L 249.203125 103.324219 L 278.507812 126.058594 L 272.597656 133.675781 Z M 243.292969 110.941406 " fill-opacity="1" fill-rule="nonzero"/></g></g></g><g clip-path="url(#c9ca4f0cf6)"><g clip-path="url(#57a7310623)"><g clip-path="url(#b0cda58c09)"><path fill="#ffffff" d="M 245.839844 109.601562 L 251.367188 98.234375 L 272.890625 108.691406 L 267.363281 120.0625 Z M 245.839844 109.601562 " fill-opacity="1" fill-rule="nonzero"/></g></g></g><g clip-path="url(#67f059c785)"><g clip-path="url(#18078b8fd2)"><g clip-path="url(#64cfe067f9)"><path fill="#ffffff" d="M 258.570312 122.714844 L 265.558594 121.953125 L 268.023438 144.640625 L 261.035156 145.398438 Z M 258.570312 122.714844 " fill-opacity="1" fill-rule="nonzero"/></g></g></g><g clip-path="url(#f28b8d2472)"><g clip-path="url(#710880923b)"><path fill="#ffffff" d="M 254.566406 118.5 L 264.164062 118.5 L 264.164062 128.097656 L 254.566406 128.097656 Z M 254.566406 118.5 " fill-opacity="1" fill-rule="nonzero"/></g></g><g clip-path="url(#d630138059)"><g clip-path="url(#387c6b8cdc)"><g clip-path="url(#c6c90766f1)"><path fill="#ffffff" d="M 187.136719 151.398438 L 184.085938 110.832031 L 206.519531 109.144531 L 209.566406 149.714844 Z M 187.136719 151.398438 " fill-opacity="1" fill-rule="nonzero"/></g></g></g><g clip-path="url(#054bca2064)"><path fill="#000000" d="M 224.273438 91.285156 C 235.03125 91.285156 244.773438 95.644531 251.828125 102.699219 L 244.738281 109.789062 C 239.5 104.550781 232.265625 101.308594 224.273438 101.308594 C 216.28125 101.308594 209.046875 104.550781 203.808594 109.789062 C 198.570312 115.027344 195.328125 122.261719 195.328125 130.253906 C 195.328125 138.246094 198.570312 145.480469 203.808594 150.71875 L 196.71875 157.808594 C 189.664062 150.757812 185.300781 141.011719 185.300781 130.253906 C 185.300781 119.496094 189.664062 109.75 196.71875 102.699219 C 203.769531 95.644531 213.515625 91.285156 224.273438 91.285156 Z M 224.273438 125.242188 L 262.921875 125.242188 C 263.132812 126.882812 263.242188 128.554688 263.242188 130.253906 C 263.242188 141.011719 258.882812 150.757812 251.828125 157.808594 C 244.773438 164.859375 235.03125 169.226562 224.273438 169.226562 L 224.273438 159.199219 C 232.265625 159.199219 239.5 155.957031 244.738281 150.71875 C 248.855469 146.601562 251.738281 141.25 252.785156 135.265625 L 224.273438 135.265625 Z M 224.273438 125.242188 " fill-opacity="1" fill-rule="nonzero"/></g><g clip-path="url(#1e732c6f3a)"><g clip-path="url(#7a498731f6)"><path fill="#ffffff" d="M 298.484375 124.160156 L 354.105469 124.160156 L 354.105469 199.410156 L 298.484375 199.410156 Z M 298.484375 124.160156 " fill-opacity="1" fill-rule="nonzero"/></g></g><g clip-path="url(#1800240793)"><g clip-path="url(#ee93e59d7f)"><path fill="#ffffff" d="M 333.285156 128.097656 L 374.921875 128.097656 L 374.921875 194.222656 L 333.285156 194.222656 Z M 333.285156 128.097656 " fill-opacity="1" fill-rule="nonzero"/></g></g><g clip-path="url(#7dda6afaca)"><g clip-path="url(#59d14da4d4)"><path fill="#ffffff" d="M 333.285156 113.78125 L 388.902344 113.78125 L 388.902344 189.03125 L 333.285156 189.03125 Z M 333.285156 113.78125 " fill-opacity="1" fill-rule="nonzero"/></g></g><g clip-path="url(#4de14257a6)"><path fill="#000000" d="M 352.183594 172.804688 L 342.824219 189.019531 L 324.105469 156.589844 L 314.75 140.378906 L 305.390625 124.164062 L 324.105469 124.164062 L 333.464844 140.378906 L 342.824219 156.589844 Z M 361.558594 124.164062 L 352.199219 140.378906 L 370.917969 140.378906 L 380.273438 124.164062 Z M 361.558594 124.164062 " fill-opacity="1" fill-rule="nonzero"/></g><g clip-path="url(#a36f0af243)"><g clip-path="url(#b1153bd3d4)"><path fill="#ffffff" d="M 340.074219 189.03125 L 348.230469 189.03125 L 348.230469 196.171875 L 340.074219 196.171875 Z M 340.074219 189.03125 " fill-opacity="1" fill-rule="nonzero"/></g></g><g fill="#000000" fill-opacity="1"><g transform="translate(181.722933, 237.524096)"><g><path d="M 3 -1.207031 L 3.542969 -0.417969 L 4.332031 0.0429688 L 13.75 -0.0429688 L 14.5 0.0820312 L 17.039062 -0.0429688 L 19.582031 0.125 L 20.375 0.0429688 L 21.25 -0.375 L 21.625 -1.167969 L 21.707031 -1.957031 L 21.664062 -4.542969 L 21.75 -5.332031 L 21.207031 -6.167969 L 19.957031 -6.582031 L 14.457031 -6.667969 L 13.664062 -6.542969 L 12.75 -6.625 L 11.832031 -6.542969 L 10.957031 -7.042969 L 10.582031 -8.332031 L 10.625 -10.375 L 11 -11.25 L 11.75 -11.707031 L 13.375 -11.707031 L 14.207031 -11.789062 L 16.414062 -11.664062 L 17.539062 -11.75 L 18.414062 -11.664062 L 19.164062 -11.707031 L 20 -12.164062 L 20.414062 -12.957031 L 20.5 -16.25 L 20.414062 -17.082031 L 20.039062 -17.875 L 19.332031 -18.332031 L 17.664062 -18.375 L 16.832031 -18.289062 L 15.957031 -18.289062 L 15 -18.375 L 11.707031 -18.332031 L 11 -18.789062 L 10.5 -19.539062 L 10.414062 -20.832031 L 10.832031 -22.039062 L 12.125 -22.414062 L 20.125 -22.457031 L 21 -22.914062 L 21.457031 -23.664062 L 21.375 -25.371094 L 21.25 -26.164062 L 21.289062 -27.082031 L 21.414062 -27.871094 L 21 -28.707031 L 20.125 -29.082031 L 16.789062 -29.121094 L 16.039062 -29.039062 L 15.207031 -29.164062 L 13.375 -29.082031 L 12.539062 -29.164062 L 10.914062 -29.121094 L 10.164062 -29.207031 L 4.707031 -29.082031 L 3.5 -28.789062 L 3.082031 -27.871094 L 3.167969 -26.207031 L 3 -24.996094 L 3.167969 -22.875 L 3.082031 -22 L 3.167969 -21.25 L 3.167969 -13.789062 L 3.042969 -12.914062 L 3.167969 -11.289062 L 3.082031 -9.625 L 3.207031 -8.75 L 3.125 -7.832031 L 3.167969 -7.042969 L 3.042969 -6.292969 L 3.125 -5.332031 L 3.125 -4.5 L 3.207031 -2.875 L 3.167969 -2.042969 Z M 3 -1.207031 "/></g></g></g><g fill="#000000" fill-opacity="1"><g transform="translate(205.595026, 237.524096)"><g><path d="M 3 -1.207031 L 3.542969 -0.417969 L 4.332031 0.0429688 L 13.75 -0.0429688 L 14.5 0.0820312 L 17.039062 -0.0429688 L 19.582031 0.125 L 20.375 0.0429688 L 21.25 -0.375 L 21.625 -1.167969 L 21.707031 -1.957031 L 21.664062 -4.542969 L 21.75 -5.332031 L 21.207031 -6.167969 L 19.957031 -6.582031 L 14.457031 -6.667969 L 13.664062 -6.542969 L 12.75 -6.625 L 11.832031 -6.542969 L 10.957031 -7.042969 L 10.582031 -8.332031 L 10.625 -10.375 L 11 -11.25 L 11.75 -11.707031 L 13.375 -11.707031 L 14.207031 -11.789062 L 16.414062 -11.664062 L 17.539062 -11.75 L 18.414062 -11.664062 L 19.164062 -11.707031 L 20 -12.164062 L 20.414062 -12.957031 L 20.5 -16.25 L 20.414062 -17.082031 L 20.039062 -17.875 L 19.332031 -18.332031 L 17.664062 -18.375 L 16.832031 -18.289062 L 15.957031 -18.289062 L 15 -18.375 L 11.707031 -18.332031 L 11 -18.789062 L 10.5 -19.539062 L 10.414062 -20.832031 L 10.832031 -22.039062 L 12.125 -22.414062 L 20.125 -22.457031 L 21 -22.914062 L 21.457031 -23.664062 L 21.375 -25.371094 L 21.25 -26.164062 L 21.289062 -27.082031 L 21.414062 -27.871094 L 21 -28.707031 L 20.125 -29.082031 L 16.789062 -29.121094 L 16.039062 -29.039062 L 15.207031 -29.164062 L 13.375 -29.082031 L 12.539062 -29.164062 L 10.914062 -29.121094 L 10.164062 -29.207031 L 4.707031 -29.082031 L 3.5 -28.789062 L 3.082031 -27.871094 L 3.167969 -26.207031 L 3 -24.996094 L 3.167969 -22.875 L 3.082031 -22 L 3.167969 -21.25 L 3.167969 -13.789062 L 3.042969 -12.914062 L 3.167969 -11.289062 L 3.082031 -9.625 L 3.207031 -8.75 L 3.125 -7.832031 L 3.167969 -7.042969 L 3.042969 -6.292969 L 3.125 -5.332031 L 3.125 -4.5 L 3.207031 -2.875 L 3.167969 -2.042969 Z M 3 -1.207031 "/></g></g></g><g fill="#000000" fill-opacity="1"><g transform="translate(229.467119, 237.524096)"><g><path d="M 3.207031 -1.25 L 3.5 -0.375 L 4.707031 0.0820312 L 9.082031 0.0429688 L 10.289062 -0.375 L 10.707031 -1.292969 L 10.582031 -6.332031 L 10.664062 -7.25 L 10.664062 -9.832031 L 11.039062 -10.582031 L 12.082031 -11.082031 L 13.332031 -10.832031 L 14.125 -10.207031 L 15.832031 -7.375 L 16.875 -5.207031 L 17.375 -4.5 L 17.75 -3.792969 L 18.289062 -3.082031 L 19.414062 -0.917969 L 20.207031 -0.292969 L 21.625 0 L 26.246094 0 L 27.121094 0.0820312 L 27.832031 -0.292969 L 28.039062 -1.25 L 27.664062 -2.25 L 27.082031 -2.875 L 26.664062 -3.582031 L 26.332031 -4.375 L 25.707031 -5.082031 L 24.914062 -6.5 L 24.414062 -7.167969 L 24.082031 -7.917969 L 23.582031 -8.664062 L 22.375 -10.832031 L 20.914062 -12.914062 L 20.914062 -13.832031 L 21.289062 -14.789062 L 22.039062 -15.25 L 23.25 -16.457031 L 24.164062 -17.875 L 24.582031 -18.664062 L 24.789062 -19.414062 L 25.164062 -20.289062 L 25.582031 -21.875 L 25.621094 -22.664062 L 25.871094 -24.414062 L 25.789062 -25.332031 L 25.957031 -26.121094 L 25.914062 -27.789062 L 25.582031 -28.746094 L 24.707031 -29.207031 L 20.914062 -29.082031 L 19.707031 -29.207031 L 18.707031 -28.707031 L 18.25 -27.832031 L 18.375 -25.289062 L 18.164062 -23.539062 L 17.75 -21.875 L 17.414062 -21.082031 L 16.875 -20.457031 L 16.375 -19.789062 L 15.75 -19.25 L 15 -18.789062 L 14.289062 -18.457031 L 12.457031 -18.082031 L 11.457031 -18.039062 L 10.707031 -18.5 L 10.75 -19.375 L 10.625 -20.125 L 10.75 -26.164062 L 10.625 -26.957031 L 10.582031 -27.789062 L 10.164062 -28.707031 L 9.414062 -29.121094 L 8.539062 -29.207031 L 7.707031 -29.121094 L 4.332031 -29.207031 L 3.667969 -28.664062 L 3.082031 -27.914062 L 3.082031 -27.039062 L 3.167969 -26.207031 L 3.042969 -23.707031 L 3.082031 -22.914062 L 3.207031 -22.082031 L 3 -20.414062 L 3.125 -19.539062 L 3.207031 -9.539062 L 3.082031 -8.789062 L 3.125 -7.917969 L 3 -6.25 L 3.207031 -4.582031 L 3.125 -3.667969 L 3.167969 -2.832031 L 3.082031 -2.082031 Z M 3.207031 -1.25 "/></g></g></g><g fill="#000000" fill-opacity="1"><g transform="translate(258.33946, 237.524096)"><g/></g></g><g fill="#000000" fill-opacity="1"><g transform="translate(278.506608, 236.17847)"><g><path d="M 12.886719 0.335938 L 13.785156 0.0390625 L 14.609375 -1.046875 L 15.09375 -2.097656 L 15.320312 -2.882812 L 16.03125 -4.082031 L 16.257812 -4.832031 L 16.628906 -5.617188 L 16.855469 -6.253906 L 17.265625 -6.929688 L 18.726562 -10.339844 L 18.992188 -11.160156 L 19.664062 -12.359375 L 22.921875 -20.078125 L 23.296875 -20.75 L 23.933594 -22.097656 L 24.121094 -22.8125 L 24.832031 -24.121094 L 25.097656 -25.132812 L 24.910156 -25.921875 L 24.234375 -26.070312 L 23.449219 -26.144531 L 22.773438 -26.257812 L 22.0625 -26.183594 L 21.3125 -26.144531 L 19.890625 -26.292969 L 19.066406 -25.808594 L 18.429688 -25.171875 L 14.945312 -16.929688 L 14.71875 -16.144531 L 14.382812 -15.507812 L 14.234375 -14.832031 L 13.859375 -14.160156 L 13.109375 -12.0625 L 12.734375 -11.386719 L 12.324219 -11.460938 L 11.386719 -13.484375 L 11.238281 -14.195312 L 10.601562 -15.46875 L 8.726562 -20.339844 L 7.753906 -22.324219 L 6.703125 -25.171875 L 6.066406 -25.808594 L 5.207031 -26.183594 L 3.070312 -26.257812 L 2.324219 -26.144531 L 0.898438 -26.144531 L 0.300781 -25.882812 L 0 -25.132812 L 1.199219 -21.949219 L 1.574219 -21.386719 L 1.761719 -20.675781 L 2.058594 -19.925781 L 2.472656 -19.363281 L 2.734375 -18.578125 L 6.105469 -11.011719 L 6.332031 -10.261719 L 7.265625 -8.316406 L 7.527344 -7.527344 L 8.164062 -6.253906 L 8.578125 -5.582031 L 8.765625 -4.832031 L 10.261719 -1.273438 L 10.601562 -0.710938 L 11.347656 -0.0742188 L 12.171875 0.226562 Z M 12.886719 0.335938 "/></g></g></g><g fill="#000000" fill-opacity="1"><g transform="translate(303.751292, 236.17847)"><g><path d="M 1.796875 -1.085938 L 2.171875 -0.300781 L 2.921875 -0.0390625 L 14.046875 0.0390625 L 14.757812 -0.335938 L 15.167969 -1.011719 L 15.167969 -1.835938 L 15.09375 -2.507812 L 15.207031 -4.792969 L 14.683594 -5.429688 L 12.171875 -6.21875 L 11.761719 -6.96875 L 11.835938 -10.039062 L 11.6875 -11.535156 L 11.835938 -13.109375 L 11.761719 -14.234375 L 11.835938 -15.394531 L 11.761719 -16.105469 L 11.835938 -16.855469 L 11.761719 -17.640625 L 11.761719 -19.214844 L 12.171875 -19.890625 L 12.886719 -20.300781 L 13.710938 -20.339844 L 14.421875 -20.75 L 14.832031 -21.460938 L 14.832031 -23.671875 L 14.90625 -24.347656 L 14.832031 -25.097656 L 14.53125 -25.84375 L 13.335938 -26.183594 L 8.578125 -26.21875 L 7.753906 -26.144531 L 5.46875 -26.183594 L 4.757812 -26.144531 L 3.296875 -26.21875 L 2.472656 -25.84375 L 2.058594 -25.058594 L 2.058594 -24.347656 L 1.984375 -23.710938 L 1.984375 -22.886719 L 2.058594 -22.136719 L 2.058594 -21.425781 L 2.433594 -20.714844 L 4.71875 -19.925781 L 5.207031 -19.253906 L 5.09375 -16.070312 L 5.132812 -15.433594 L 5.242188 -14.570312 L 5.207031 -13.035156 L 5.132812 -12.285156 L 5.28125 -10.824219 L 5.09375 -10.074219 L 5.242188 -8.464844 L 5.167969 -7.003906 L 4.792969 -6.179688 L 2.324219 -5.394531 L 1.871094 -4.683594 L 1.796875 -3.96875 Z M 1.796875 -1.085938 "/></g></g></g><g fill="#000000" fill-opacity="1"><g transform="translate(320.755876, 236.17847)"><g><path d="M 10.863281 0.300781 L 11.949219 0.410156 L 13.148438 0.375 L 16.816406 -0.335938 L 18.765625 -1.386719 L 19.964844 -2.210938 L 21.011719 -3.410156 L 21.761719 -4.605469 L 22.0625 -5.28125 L 22.285156 -6.03125 L 22.398438 -6.703125 L 22.4375 -9.027344 L 22.324219 -9.777344 L 22.136719 -10.488281 L 21.386719 -11.875 L 20.488281 -13.035156 L 19.851562 -13.558594 L 17.867188 -14.457031 L 14.796875 -15.207031 L 11.011719 -15.695312 L 9.4375 -16.257812 L 8.878906 -16.554688 L 8.277344 -17.15625 L 8.242188 -18.167969 L 8.351562 -19.140625 L 8.765625 -19.664062 L 9.402344 -20.152344 L 9.925781 -20.375 L 10.601562 -20.527344 L 12.996094 -20.601562 L 13.820312 -20.300781 L 14.382812 -19.851562 L 15.621094 -18.539062 L 16.78125 -18.167969 L 19.253906 -18.089844 L 19.925781 -18.167969 L 20.636719 -18.089844 L 21.351562 -18.539062 L 21.6875 -19.253906 L 21.386719 -20.714844 L 20.789062 -22.0625 L 20.300781 -22.660156 L 19.925781 -23.261719 L 19.441406 -23.824219 L 17.042969 -25.46875 L 14.984375 -26.183594 L 14.195312 -26.332031 L 13.523438 -26.40625 L 12.699219 -26.59375 L 10.601562 -26.558594 L 7.640625 -25.957031 L 6.96875 -25.695312 L 6.367188 -25.320312 L 5.769531 -25.097656 L 5.019531 -24.644531 L 4.496094 -24.160156 L 3.820312 -23.710938 L 3.410156 -23.074219 L 2.921875 -22.585938 L 2.660156 -21.910156 L 2.285156 -21.3125 L 1.761719 -19.140625 L 1.796875 -16.628906 L 2.058594 -15.582031 L 2.546875 -14.269531 L 3.484375 -13.035156 L 4.53125 -12.0625 L 5.84375 -11.273438 L 7.976562 -10.5625 L 9.328125 -10.261719 L 12.398438 -10.039062 L 13.074219 -9.925781 L 13.820312 -9.886719 L 15.167969 -9.328125 L 15.695312 -8.878906 L 15.882812 -7.902344 L 15.65625 -6.929688 L 15.058594 -6.40625 L 14.457031 -6.066406 L 13.074219 -5.65625 L 12.023438 -5.617188 L 10.898438 -5.695312 L 10.039062 -5.917969 L 9.476562 -6.179688 L 8.800781 -6.59375 L 8.242188 -7.117188 L 7.679688 -7.867188 L 6.929688 -8.164062 L 4.082031 -8.242188 L 3.332031 -8.164062 L 2.585938 -8.203125 L 1.835938 -7.867188 L 1.574219 -7.078125 L 1.648438 -6.253906 L 1.796875 -5.582031 L 2.398438 -4.082031 L 3.332031 -2.921875 L 4.417969 -1.835938 L 5.054688 -1.421875 L 7.753906 -0.1875 L 8.578125 -0.0742188 L 9.289062 0.1875 Z M 10.863281 0.300781 "/></g></g></g><g fill="#000000" fill-opacity="1"><g transform="translate(344.652185, 236.17847)"><g><path d="M 2.847656 -1.046875 L 3.144531 -0.261719 L 4.007812 0.0742188 L 4.71875 0.0742188 L 5.878906 -0.0390625 L 6.96875 0 L 7.753906 0.113281 L 8.539062 0.0390625 L 9.363281 -0.300781 L 9.664062 -1.046875 L 9.703125 -1.796875 L 9.589844 -2.621094 L 9.664062 -3.296875 L 9.589844 -4.046875 L 9.664062 -4.757812 L 9.625 -5.582031 L 9.703125 -6.367188 L 9.589844 -9.328125 L 9.964844 -10.113281 L 10.710938 -10.5625 L 11.5 -10.5625 L 12.171875 -10.488281 L 14.382812 -10.488281 L 15.132812 -10.5625 L 15.882812 -10.488281 L 16.59375 -10.488281 L 17.265625 -10.113281 L 17.640625 -9.363281 L 17.753906 -7.078125 L 17.640625 -6.367188 L 17.792969 -3.707031 L 17.640625 -2.585938 L 17.753906 -1.125 L 18.128906 -0.335938 L 18.878906 0.0390625 L 19.628906 -0.0390625 L 20.75 0.0742188 L 23.335938 0.0742188 L 24.085938 -0.335938 L 24.496094 -1.046875 L 24.644531 -2.585938 L 24.644531 -8.613281 L 24.496094 -10.039062 L 24.535156 -10.789062 L 24.460938 -11.574219 L 24.460938 -12.324219 L 24.570312 -13.109375 L 24.535156 -14.53125 L 24.609375 -15.355469 L 24.496094 -19.027344 L 24.683594 -22.136719 L 24.535156 -22.847656 L 24.460938 -23.558594 L 24.609375 -24.308594 L 24.535156 -25.058594 L 24.160156 -25.808594 L 23 -26.183594 L 21.089844 -26.21875 L 19.890625 -26.105469 L 19.140625 -26.105469 L 18.015625 -25.769531 L 17.71875 -24.683594 L 17.792969 -20.601562 L 17.640625 -19.964844 L 17.640625 -17.792969 L 17.230469 -17.042969 L 16.59375 -16.667969 L 15.09375 -16.667969 L 14.421875 -16.742188 L 10.789062 -16.707031 L 10 -17.042969 L 9.703125 -17.753906 L 9.703125 -20 L 9.777344 -20.675781 L 9.664062 -24.382812 L 9.703125 -25.019531 L 9.25 -25.808594 L 8.089844 -26.183594 L 5.878906 -26.105469 L 5.132812 -26.183594 L 4.417969 -26.105469 L 3.257812 -25.769531 L 2.847656 -25.132812 L 2.734375 -24.308594 L 2.734375 -23.597656 L 2.808594 -22.773438 L 2.695312 -22.0625 L 2.882812 -19.816406 L 2.773438 -18.992188 L 2.847656 -18.355469 L 2.695312 -17.605469 L 2.847656 -15.320312 L 2.773438 -14.53125 L 2.773438 -12.359375 L 2.882812 -11.648438 L 2.808594 -10.488281 L 2.882812 -9.625 L 2.773438 -7.867188 L 2.847656 -7.042969 L 2.734375 -6.292969 L 2.847656 -5.617188 L 2.773438 -4.871094 Z M 2.847656 -1.046875 "/></g></g></g><g fill="#000000" fill-opacity="1"><g transform="translate(372.06927, 236.17847)"><g><path d="M 9.140625 -0.75 L 9.703125 -0.0390625 L 10.523438 0.226562 L 11.984375 0.226562 L 12.847656 -0.0742188 L 13.445312 -0.824219 L 14.121094 -2.136719 L 14.644531 -3.632812 L 14.945312 -4.234375 L 15.132812 -4.980469 L 16.628906 -8.539062 L 16.78125 -9.175781 L 17.453125 -10.636719 L 17.679688 -11.3125 L 17.980469 -11.347656 L 18.355469 -10.601562 L 18.539062 -9.964844 L 18.914062 -9.25 L 19.253906 -8.539062 L 19.441406 -7.789062 L 20.039062 -6.441406 L 20.265625 -5.730469 L 20.824219 -4.34375 L 21.238281 -3.597656 L 21.5 -2.921875 L 21.648438 -2.210938 L 22.210938 -0.863281 L 22.886719 -0.0390625 L 23.746094 0.300781 L 25.019531 0.226562 L 25.957031 -0.113281 L 26.59375 -0.785156 L 26.742188 -1.5 L 27.417969 -2.882812 L 27.832031 -4.34375 L 28.429688 -5.65625 L 28.917969 -7.152344 L 29.292969 -7.828125 L 29.441406 -8.539062 L 29.742188 -9.328125 L 30.039062 -10.414062 L 30.863281 -12.136719 L 31.726562 -14.90625 L 32.136719 -15.621094 L 32.511719 -17.003906 L 32.847656 -17.753906 L 33 -18.464844 L 33.375 -19.140625 L 34.046875 -21.273438 L 34.460938 -21.910156 L 35.433594 -25.058594 L 35.285156 -25.957031 L 34.121094 -26.257812 L 30.039062 -26.183594 L 29.367188 -26.21875 L 28.503906 -25.808594 L 27.941406 -25.132812 L 27.753906 -24.382812 L 27.417969 -23.746094 L 26.78125 -21.539062 L 26.445312 -20.789062 L 26.257812 -20.113281 L 25.808594 -18.992188 L 24.160156 -12.511719 L 23.824219 -12.585938 L 23.710938 -13.257812 L 23.296875 -13.894531 L 23.1875 -14.609375 L 21.835938 -18.203125 L 21.6875 -18.914062 L 21.351562 -19.664062 L 21.238281 -20.414062 L 19.664062 -24.722656 L 19.101562 -25.46875 L 18.128906 -25.808594 L 17.417969 -25.84375 L 16.59375 -25.433594 L 16.144531 -24.683594 L 15.46875 -23.222656 L 15.132812 -21.761719 L 14.082031 -19.027344 L 13.859375 -18.203125 L 13.035156 -16.105469 L 12.921875 -15.394531 L 12.660156 -14.683594 L 12.25 -13.894531 L 12.136719 -13.257812 L 11.722656 -12.511719 L 11.5 -12.472656 L 9.363281 -20.75 L 8.988281 -21.460938 L 8.425781 -22.921875 L 8.277344 -23.710938 L 8.054688 -24.382812 L 7.867188 -25.132812 L 7.265625 -25.808594 L 6.332031 -26.257812 L 5.695312 -26.183594 L 3.332031 -26.21875 L 2.734375 -26.144531 L 1.3125 -26.144531 L 0.523438 -25.882812 L 0.335938 -25.019531 L 0.523438 -24.046875 L 0.863281 -23.335938 L 1.3125 -21.949219 L 1.648438 -21.273438 L 1.835938 -20.488281 L 2.210938 -19.851562 L 2.921875 -17.71875 L 3.257812 -17.003906 L 3.445312 -16.332031 L 3.78125 -15.582031 L 3.933594 -14.90625 L 4.792969 -12.847656 L 4.90625 -12.136719 L 5.28125 -11.347656 L 5.394531 -10.636719 L 8.164062 -3.632812 L 8.539062 -2.171875 Z M 9.140625 -0.75 "/></g></g></g><g fill="#000000" fill-opacity="1"><g transform="translate(407.810969, 236.17847)"><g/></g></g></svg>